M48
;Layer_Color=9474304
;FILE_FORMAT=2:5
INCH,LZ
;TYPE=PLATED
T1F00S00C0.01000
T2F00S00C0.01200
T3F00S00C0.01300
T4F00S00C0.01500
T5F00S00C0.01800
T6F00S00C0.02000
T7F00S00C0.02500
T8F00S00C0.03543
T9F00S00C0.11811
%
T01
X-01226Y001752
X-01024
X-0099432Y0027132
X-007785Y00272
X-00742Y0037096
X-00813Y00383
X-00704Y00433
X-0054Y004752
Y002352
X-00609Y001752
X-007185Y00158
X-00865Y001752
X-00889Y00503
X-00865Y0065026
X-00771Y00655
X-007985Y0081
X-00911Y0088
X-00869Y00942
X-00784Y009952
X-007985Y0102
X-00742Y01068
X-0061259Y0106758
X-005385Y011
X-00986Y010752
X-00976Y01138
X-011185Y01089
X-01117Y01043
X-01206Y01013
X-0127766Y0078416
X-0117Y0071
X-01147Y00686
X-0119Y00664
X-01215Y0058
X-01325Y005
X-01312Y0046663
X-0131Y00435
X-01281Y00411
X-0124197Y003775
X-01105Y00395
X-01045Y0046
X-0106945Y00527
X-009785Y00726
X-01385Y0074
X-01377Y00663
X-01439Y00594
X-01454Y00489
X-01503Y00442
X-01575Y00405
X-01602Y00412
X-01641Y00442
X-01628Y00507
X-0158882Y00498
X-01584Y0068591
X-01565Y00787
X-0154842Y0088359
X-01423Y0087
X-0147612Y00977
X-01493Y01011
X-01492Y01106
X-01487Y0114
X-01553Y0108
X-0158Y01085
X-01745Y0104
X-0180816Y0104027
X-018Y0113
X-0194Y0105
X-01989Y010425
X-020995Y0102904
X-0218Y01125
X-022585Y01082
X-023185Y00927
Y0082
X-02327Y007352
X-0245Y007152
X-024385Y00822
X-02443Y009552
X-0218Y0084
Y0074
X-0211185Y0080685
X-0194Y0087
X-0191Y0089254
X-01824Y00709
X-01787Y00663
X-01757Y00672
X-01744Y00442
X-01754Y00359
X-01849Y00478
X-018922Y004718
X-01915Y00555
X-0210154Y0055761
X-02215Y005
X-02305Y004752
X-02232Y003952
X-022185Y00266
X-02294Y001752
X-024185Y00166
X-02423Y005152
X-01375Y0053
X-0136Y0044464
Y00285
Y0015744
X-0164667
X-01525Y00295
X-01466Y00708
X-01449Y01185
X-01405Y0118
X-01375Y0119
X-01372Y01275
X-01375Y01305
X-0138Y014
X-01434Y015
X-01431Y01527
X-014309Y015541
X-0144Y01655
X-01525Y01605
X-0156Y01725
X-0161Y01747
X-01655Y0171
X-01751Y01736
X-0188Y0168
X-01855Y0154
X-0176Y01544
X-0182Y01465
X-017886Y013514
X-017616Y01357
X-01762Y01289
X-01635Y0129
X-01606Y012825
X-01579
X-0155Y01285
X-015
X-0147
X-01547Y011636
X-0165Y01215
X-0164Y01375
X-0162Y014
X-01644Y01484
X-01525Y0143068
X-01548Y01807
X-01522Y01947
X-01565Y01975
X-01615Y0195
X-0163Y01925
X-0179Y0192
X-0182
X-0185011Y01919
X-01875Y0194
X-01929Y0195489
X-01945Y0201663
X-01923Y02071
X-0179Y0208
X-01522Y02167
X-0151Y02215
X-01475Y02195
X-01452Y0221504
X-01395Y0222
X-01355Y0217088
X-01375Y02005
X-01418
X-01408Y01947
X-0145Y024
X-0206Y02365
X-0221Y0259
X-024385Y02268
X-0245Y019952
X-0215Y0174
X-02167Y0164932
X-0214Y0162
X-0214744Y0140756
X-02095Y0132
X-0207056Y0126444
X-02155Y0115
X-02246Y01193
X-0224Y0132
X-0231Y0136
X-0235Y0141224
X-02412Y0147153
X-0197Y0156
X-0135Y01577
X-013Y01489
X-0127Y0147
X-01325Y01425
X-0116802Y0140257
X-01145Y0128
X-01111Y01284
X-01112Y01311
X-0121Y01265
X-0119Y0123
X-0123Y01225
X-01255Y01245
X-0129Y0123
X-01325Y0124
X-0130164Y0114836
X-0101Y0125
X-00965Y01284
X-00992Y01376
X-00993Y01407
X-00915Y0147
X-00875Y01543
X-00873Y01584
X-01015Y01625
X-0104Y01665
X-01087Y01668
X-01065Y0169
X-01073Y017752
X-01005Y01855
X-01Y0193
X-0102689Y01947
X-0106Y01925
X-01121Y01968
X-0122Y0199
X-01294Y02005
X-01295Y01975
X-01255Y02085
X-01215Y0214
X-0118Y0214
X-0121Y02215
X-01295Y022
X-0130593Y0225907
X-01075Y02087
X-00993Y02068
X-0090156Y0207
X-00905Y02005
X-00878Y0197
X-00877Y01903
X-0073Y01945
X-00695Y02011
X-0077754Y02065
X-0080519Y02261
X-006385Y02263
X-005385Y02246
Y0199
X-00692Y01864
X-00625Y0176
X-006Y01735
X-0069Y016752
X-00683Y015352
X-0073Y01495
X-00669Y01376
X-0063Y01355
X-0061Y01333
X-00635Y012552
X-006585Y01171
X-0072815Y0127315
X-0079Y0128
X-00792Y0121
X-00692Y01311
X-005385Y01282
X-0054487Y01444
X-0055Y015752
Y01625
X-00945Y017552
X-0111449Y01577
X-0111Y01495
X-01285Y0173
X-0065Y025952
T02
X-01315Y0036
X-01237Y00306
X-0124197Y0046
X-01215Y00529
X-01258Y00713
X-0118819Y0083616
Y008679
X-0119Y0091
X-0124Y0094
X-00922Y00939
X-00782Y01096
X-00806Y0056
X-00886Y0046198
X-0147Y0038
X-0146Y00325
X-01405Y00255
X-0166Y0031
X-01672Y0040158
X-01695Y0038
X-01815Y00425
X-0188Y00395
Y00365
X-0188Y00574
Y0060575
X-0197Y0058361
X-01745Y00555
X-0176506Y0083106
X-0186946Y01045
X-014Y0103
X-02154Y0036461
Y00315
X-02155Y00265
X-0235869Y0124
X-0235Y01345
Y0138074
X-02315Y01455
X-0228Y0143
X-0228618Y0149118
X-02213Y01428
X-0199Y01345
X-01865Y0134
X-018955Y01309
X-01691Y01689
X-01625Y0168
X-01659Y01748
X-0153Y01994
Y0202575
X-01626Y0226
X-0178Y02134
X-0197043Y0210957
X-0206Y02075
X-0207Y0202
X-02074Y01957
X-01905Y0193
X-0207Y01725
X-02185Y0177
X-02436Y0162386
X-0244Y0193
X-02366Y02325
X-0231Y023
X-0218
X-0118074Y0233474
X-0111815Y0232915
X-0112Y02215
X-00933Y0232637
X-0087Y0233122
X-0081Y0221
X-0081Y02154
X-0082Y021125
X-008Y01917
T03
X-0114216Y0076216
X-01116Y00983
X-01489Y00771
X-0177Y00761
X-018665Y007845
X-02122Y0126019
X-013745Y012435
X-0166Y01847
T04
X-011555Y005425
X-0089Y0063
X-01485Y00913
X-01768Y00942
X-0183Y00918
X-0197Y009575
X-020715Y0096
X-02025Y00883
X-01993Y00868
X-02002Y00765
X-01892Y0071
X-0209Y00605
X-0233Y0054
X-0202Y0021256
X-01855
X-0170333
X-0146
X-01955Y0138
X-022505Y0140716
X-022897Y01546
X-02439Y01539
X-0244Y0123929
X-024Y01155
X-02296Y01194
X-0222656Y0196844
X-01945Y01925
X-01937Y01694
X-01675Y01915
X-01645Y02045
X-01676Y0209954
X-0142Y0205591
X-0191032Y0220868
X-0129Y02335
X-01267Y01954
X-0111832Y020255
X-01025Y0207
X-0095218Y0206943
X-0093Y0185
X-00926Y01582
X-01195Y013
X-00763Y01161
X-00591Y0185544
T05
X-0227Y01805
T06
X-02372Y01917
X-0212Y0189
T07
X-0201Y01955
X-0173Y01965
T08
X-0068Y0054
Y0064
Y0074
X-0058
Y0064
Y0054
X-0063Y0086
Y0096
X-0144Y0245
Y0255
Y0265
X-0154
X-0164
X-0174
X-0184
X-0194
X-0204
X-0214
Y0255
X-0204
X-0194
X-0184
X-0174
X-0164
X-0154
Y0245
X-0164
X-0174
X-0184
X-0194
X-0204
X-0214
X-0228
X-0238
Y0255
X-0228
Y0265
X-0238
X-0134
Y0255
Y0245
X-0124
Y0255
Y0265
X-0112Y0265
X-0102
Y0255
Y0245
X-0092
X-0082
Y0255
X-0092
Y0265
X-0082
X-0072
Y0255
Y0245
X-0059
Y0235
Y0255
Y0265
X-0112Y0255
Y0245
T09
X-0060835Y0034835
X-0238
Y0212
X-0060835
M30
