%FSLAX25Y25*%
%MOIN*%
G70*
G01*
G75*
%ADD10C,0.01000*%
%ADD11C,0.02000*%
%ADD12C,0.01300*%
%ADD13C,0.01200*%
%ADD14C,0.01500*%
%ADD15C,0.03000*%
%ADD16C,0.02500*%
%ADD17R,0.06700X0.01800*%
%ADD18R,0.08300X0.05900*%
%ADD19R,0.07500X0.09400*%
%ADD20R,0.07500X0.04700*%
%ADD21R,0.05118X0.02756*%
G04:AMPARAMS|DCode=22|XSize=24mil|YSize=36mil|CornerRadius=6mil|HoleSize=0mil|Usage=FLASHONLY|Rotation=270.000|XOffset=0mil|YOffset=0mil|HoleType=Round|Shape=RoundedRectangle|*
%AMROUNDEDRECTD22*
21,1,0.02400,0.02400,0,0,270.0*
21,1,0.01200,0.03600,0,0,270.0*
1,1,0.01200,-0.01200,-0.00600*
1,1,0.01200,-0.01200,0.00600*
1,1,0.01200,0.01200,0.00600*
1,1,0.01200,0.01200,-0.00600*
%
%ADD22ROUNDEDRECTD22*%
%ADD23R,0.04400X0.02400*%
G04:AMPARAMS|DCode=24|XSize=24mil|YSize=36mil|CornerRadius=6mil|HoleSize=0mil|Usage=FLASHONLY|Rotation=180.000|XOffset=0mil|YOffset=0mil|HoleType=Round|Shape=RoundedRectangle|*
%AMROUNDEDRECTD24*
21,1,0.02400,0.02400,0,0,180.0*
21,1,0.01200,0.03600,0,0,180.0*
1,1,0.01200,-0.00600,0.01200*
1,1,0.01200,0.00600,0.01200*
1,1,0.01200,0.00600,-0.01200*
1,1,0.01200,-0.00600,-0.01200*
%
%ADD24ROUNDEDRECTD24*%
%ADD25R,0.01200X0.03200*%
%ADD26R,0.03200X0.01200*%
%ADD27R,0.04400X0.04000*%
%ADD28R,0.04000X0.04400*%
G04:AMPARAMS|DCode=29|XSize=24mil|YSize=36mil|CornerRadius=6mil|HoleSize=0mil|Usage=FLASHONLY|Rotation=135.000|XOffset=0mil|YOffset=0mil|HoleType=Round|Shape=RoundedRectangle|*
%AMROUNDEDRECTD29*
21,1,0.02400,0.02400,0,0,135.0*
21,1,0.01200,0.03600,0,0,135.0*
1,1,0.01200,0.00424,0.01273*
1,1,0.01200,0.01273,0.00424*
1,1,0.01200,-0.00424,-0.01273*
1,1,0.01200,-0.01273,-0.00424*
%
%ADD29ROUNDEDRECTD29*%
%ADD30R,0.02400X0.02000*%
%ADD31R,0.04800X0.03200*%
%ADD32R,0.01600X0.01600*%
%ADD33R,0.02400X0.02400*%
%ADD34R,0.06300X0.03600*%
%ADD35R,0.03600X0.06300*%
%ADD36R,0.02000X0.01200*%
%ADD37R,0.07100X0.04000*%
%ADD38R,0.03200X0.03600*%
G04:AMPARAMS|DCode=39|XSize=28mil|YSize=56mil|CornerRadius=5.6mil|HoleSize=0mil|Usage=FLASHONLY|Rotation=0.000|XOffset=0mil|YOffset=0mil|HoleType=Round|Shape=RoundedRectangle|*
%AMROUNDEDRECTD39*
21,1,0.02800,0.04480,0,0,0.0*
21,1,0.01680,0.05600,0,0,0.0*
1,1,0.01120,0.00840,-0.02240*
1,1,0.01120,-0.00840,-0.02240*
1,1,0.01120,-0.00840,0.02240*
1,1,0.01120,0.00840,0.02240*
%
%ADD39ROUNDEDRECTD39*%
G04:AMPARAMS|DCode=40|XSize=20mil|YSize=12mil|CornerRadius=2.4mil|HoleSize=0mil|Usage=FLASHONLY|Rotation=0.000|XOffset=0mil|YOffset=0mil|HoleType=Round|Shape=RoundedRectangle|*
%AMROUNDEDRECTD40*
21,1,0.02000,0.00720,0,0,0.0*
21,1,0.01520,0.01200,0,0,0.0*
1,1,0.00480,0.00760,-0.00360*
1,1,0.00480,-0.00760,-0.00360*
1,1,0.00480,-0.00760,0.00360*
1,1,0.00480,0.00760,0.00360*
%
%ADD40ROUNDEDRECTD40*%
%ADD41R,0.02000X0.01200*%
G04:AMPARAMS|DCode=42|XSize=24mil|YSize=36mil|CornerRadius=6mil|HoleSize=0mil|Usage=FLASHONLY|Rotation=225.000|XOffset=0mil|YOffset=0mil|HoleType=Round|Shape=RoundedRectangle|*
%AMROUNDEDRECTD42*
21,1,0.02400,0.02400,0,0,225.0*
21,1,0.01200,0.03600,0,0,225.0*
1,1,0.01200,-0.01273,0.00424*
1,1,0.01200,-0.00424,0.01273*
1,1,0.01200,0.01273,-0.00424*
1,1,0.01200,0.00424,-0.01273*
%
%ADD42ROUNDEDRECTD42*%
%ADD43R,0.01800X0.01200*%
%ADD44R,0.02400X0.03600*%
%ADD45R,0.04000X0.05600*%
%ADD46R,0.01200X0.02600*%
%ADD47R,0.02600X0.01200*%
%ADD48R,0.02800X0.05200*%
G04:AMPARAMS|DCode=49|XSize=60mil|YSize=12mil|CornerRadius=0mil|HoleSize=0mil|Usage=FLASHONLY|Rotation=225.000|XOffset=0mil|YOffset=0mil|HoleType=Round|Shape=Rectangle|*
%AMROTATEDRECTD49*
4,1,4,0.01697,0.02546,0.02546,0.01697,-0.01697,-0.02546,-0.02546,-0.01697,0.01697,0.02546,0.0*
%
%ADD49ROTATEDRECTD49*%

G04:AMPARAMS|DCode=50|XSize=12mil|YSize=60mil|CornerRadius=0mil|HoleSize=0mil|Usage=FLASHONLY|Rotation=225.000|XOffset=0mil|YOffset=0mil|HoleType=Round|Shape=Rectangle|*
%AMROTATEDRECTD50*
4,1,4,-0.01697,0.02546,0.02546,-0.01697,0.01697,-0.02546,-0.02546,0.01697,-0.01697,0.02546,0.0*
%
%ADD50ROTATEDRECTD50*%

G04:AMPARAMS|DCode=51|XSize=12mil|YSize=59.06mil|CornerRadius=0mil|HoleSize=0mil|Usage=FLASHONLY|Rotation=225.000|XOffset=0mil|YOffset=0mil|HoleType=Round|Shape=Rectangle|*
%AMROTATEDRECTD51*
4,1,4,-0.01664,0.02512,0.02512,-0.01664,0.01664,-0.02512,-0.02512,0.01664,-0.01664,0.02512,0.0*
%
%ADD51ROTATEDRECTD51*%

%ADD52R,0.06299X0.03150*%
%ADD53R,0.12205X0.08661*%
%ADD54R,0.05200X0.01700*%
%ADD55R,0.02400X0.08700*%
%ADD56R,0.01400X0.03400*%
%ADD57R,0.01200X0.03400*%
%ADD58R,0.03400X0.01200*%
%ADD59R,0.03600X0.02400*%
%ADD60R,0.01575X0.00984*%
%ADD61R,0.04800X0.05600*%
%ADD62C,0.01800*%
%ADD63C,0.05000*%
%ADD64R,0.07400X0.02047*%
%ADD65R,0.03900X0.03500*%
%ADD66R,0.07300X0.04400*%
%ADD67P,0.07036X8X22.5*%
%ADD68C,0.17716*%
%ADD69R,0.01800X0.01800*%
%ADD70R,0.05906X0.05906*%
%ADD71C,0.05906*%
%ADD72P,0.07036X8X112.5*%
%ADD73C,0.02000*%
%ADD74C,0.02200*%
%ADD75C,0.02500*%
%ADD76C,0.04000*%
%ADD77C,0.02300*%
%ADD78C,0.03000*%
%ADD79C,0.04000*%
G04:AMPARAMS|DCode=80|XSize=40mil|YSize=40mil|CornerRadius=20mil|HoleSize=0mil|Usage=FLASHONLY|Rotation=0.000|XOffset=0mil|YOffset=0mil|HoleType=Round|Shape=RoundedRectangle|*
%AMROUNDEDRECTD80*
21,1,0.04000,0.00000,0,0,0.0*
21,1,0.00000,0.04000,0,0,0.0*
1,1,0.04000,0.00000,0.00000*
1,1,0.04000,0.00000,0.00000*
1,1,0.04000,0.00000,0.00000*
1,1,0.04000,0.00000,0.00000*
%
%ADD80ROUNDEDRECTD80*%
G04:AMPARAMS|DCode=81|XSize=40mil|YSize=40mil|CornerRadius=20mil|HoleSize=0mil|Usage=FLASHONLY|Rotation=270.000|XOffset=0mil|YOffset=0mil|HoleType=Round|Shape=RoundedRectangle|*
%AMROUNDEDRECTD81*
21,1,0.04000,0.00000,0,0,270.0*
21,1,0.00000,0.04000,0,0,270.0*
1,1,0.04000,0.00000,0.00000*
1,1,0.04000,0.00000,0.00000*
1,1,0.04000,0.00000,0.00000*
1,1,0.04000,0.00000,0.00000*
%
%ADD81ROUNDEDRECTD81*%
%ADD82R,0.02362X0.09843*%
%ADD83R,0.02400X0.03200*%
%ADD84R,0.03600X0.06300*%
%ADD85R,0.01400X0.07800*%
%ADD86R,0.05600X0.07500*%
%ADD87R,0.07100X0.05600*%
%ADD88R,0.03200X0.06000*%
%ADD89C,0.03500*%
%ADD90C,0.00400*%
%ADD91C,0.00600*%
%ADD92C,0.00800*%
%ADD93C,0.00500*%
%ADD94C,0.00984*%
%ADD95C,0.06300*%
%ADD96C,0.00787*%
%ADD97C,0.00591*%
%ADD98C,0.00700*%
%ADD99R,0.01800X0.03000*%
%ADD100R,0.03000X0.01800*%
%ADD101R,0.02376X0.04559*%
G36*
X-85700Y83300D02*
X-90906D01*
Y101136D01*
X-85700D01*
Y83300D01*
D02*
G37*
G36*
X-79717Y118000D02*
X-85860D01*
Y137797D01*
X-79717D01*
Y118000D01*
D02*
G37*
G36*
X-97622Y181417D02*
X-97592D01*
Y171706D01*
X-131100D01*
Y181277D01*
Y189817D01*
X-97622D01*
Y181417D01*
D02*
G37*
G36*
X-77646Y56300D02*
X-82960D01*
Y67762D01*
X-77646D01*
Y56300D01*
D02*
G37*
G36*
X-214617Y70100D02*
X-220760D01*
Y91976D01*
X-214617D01*
Y70100D01*
D02*
G37*
G36*
X-90598Y46200D02*
X-91598D01*
Y47200D01*
X-90598D01*
Y46200D01*
D02*
G37*
G36*
Y59200D02*
X-91598D01*
Y60200D01*
X-90598D01*
Y59200D01*
D02*
G37*
G36*
X-80700Y188700D02*
X-81700D01*
Y189700D01*
X-80700D01*
Y188700D01*
D02*
G37*
G36*
X-90598Y33200D02*
X-91598D01*
Y34200D01*
X-90598D01*
Y33200D01*
D02*
G37*
G36*
X-86700Y187700D02*
X-87700D01*
Y188700D01*
X-86700D01*
Y187700D01*
D02*
G37*
%LPC*%
G36*
Y96690D02*
X-87325Y96300D01*
X-87393Y96256D01*
X-87451Y96217D01*
X-87510Y96183D01*
X-87564Y96144D01*
X-87652Y96085D01*
X-87725Y96031D01*
X-87779Y95988D01*
X-87813Y95958D01*
X-87837Y95939D01*
X-87842Y95934D01*
X-87896Y95880D01*
X-87944Y95822D01*
X-87993Y95763D01*
X-88032Y95709D01*
X-88066Y95661D01*
X-88091Y95622D01*
X-88105Y95597D01*
X-88110Y95592D01*
Y95587D01*
X-88125Y95666D01*
X-88140Y95734D01*
X-88159Y95802D01*
X-88183Y95861D01*
X-88208Y95919D01*
X-88232Y95973D01*
X-88257Y96017D01*
X-88281Y96061D01*
X-88305Y96095D01*
X-88330Y96129D01*
X-88354Y96153D01*
X-88369Y96178D01*
X-88389Y96193D01*
X-88398Y96207D01*
X-88403Y96217D01*
X-88408D01*
X-88452Y96256D01*
X-88501Y96290D01*
X-88598Y96339D01*
X-88701Y96378D01*
X-88793Y96407D01*
X-88876Y96422D01*
X-88911Y96427D01*
X-88945D01*
X-88969Y96432D01*
X-89003D01*
X-89106Y96427D01*
X-89203Y96412D01*
X-89286Y96388D01*
X-89360Y96363D01*
X-89423Y96334D01*
X-89467Y96315D01*
X-89496Y96295D01*
X-89506Y96290D01*
X-89584Y96232D01*
X-89648Y96173D01*
X-89701Y96110D01*
X-89745Y96051D01*
X-89779Y95997D01*
X-89804Y95953D01*
X-89813Y95924D01*
X-89818Y95919D01*
Y95914D01*
X-89833Y95871D01*
X-89848Y95817D01*
X-89867Y95700D01*
X-89887Y95578D01*
X-89896Y95456D01*
X-89901Y95402D01*
Y95348D01*
Y95300D01*
X-89906Y95256D01*
Y95221D01*
Y95197D01*
Y95178D01*
Y95173D01*
Y93821D01*
X-86700D01*
Y94470D01*
X-88037D01*
Y94597D01*
Y94675D01*
X-88032Y94743D01*
X-88027Y94797D01*
X-88018Y94841D01*
X-88013Y94875D01*
X-88003Y94899D01*
X-87998Y94914D01*
Y94919D01*
X-87983Y94958D01*
X-87964Y94992D01*
X-87920Y95056D01*
X-87901Y95080D01*
X-87881Y95099D01*
X-87871Y95109D01*
X-87866Y95114D01*
X-87847Y95134D01*
X-87818Y95153D01*
X-87749Y95207D01*
X-87676Y95265D01*
X-87593Y95319D01*
X-87515Y95373D01*
X-87486Y95397D01*
X-87451Y95417D01*
X-87427Y95431D01*
X-87408Y95446D01*
X-87398Y95451D01*
X-87393Y95456D01*
X-86700Y95914D01*
Y96690D01*
D02*
G37*
G36*
Y100136D02*
X-89906D01*
Y99160D01*
X-87715Y98589D01*
X-89906Y98008D01*
Y97042D01*
X-86700D01*
Y97642D01*
X-89223D01*
X-86700Y98276D01*
Y98896D01*
X-89223Y99531D01*
X-86700Y99535D01*
Y100136D01*
D02*
G37*
G36*
X-215617Y83798D02*
X-216017D01*
Y81245D01*
X-215617D01*
Y83798D01*
D02*
G37*
G36*
X-217383Y86540D02*
X-217432D01*
X-217539Y86535D01*
X-217637Y86521D01*
X-217725Y86496D01*
X-217798Y86477D01*
X-217857Y86453D01*
X-217905Y86428D01*
X-217930Y86413D01*
X-217940Y86409D01*
X-218013Y86355D01*
X-218081Y86301D01*
X-218135Y86243D01*
X-218184Y86184D01*
X-218218Y86135D01*
X-218247Y86096D01*
X-218262Y86067D01*
X-218267Y86062D01*
Y86057D01*
X-218291Y86013D01*
X-218310Y85965D01*
X-218354Y85852D01*
X-218389Y85740D01*
X-218428Y85623D01*
X-218452Y85520D01*
X-218467Y85476D01*
X-218476Y85437D01*
X-218486Y85403D01*
X-218491Y85379D01*
X-218496Y85364D01*
Y85359D01*
X-218515Y85276D01*
X-218540Y85198D01*
X-218559Y85130D01*
X-218579Y85071D01*
X-218594Y85013D01*
X-218613Y84969D01*
X-218628Y84925D01*
X-218647Y84891D01*
X-218662Y84857D01*
X-218672Y84832D01*
X-218691Y84793D01*
X-218706Y84774D01*
X-218711Y84769D01*
X-218745Y84740D01*
X-218774Y84715D01*
X-218808Y84701D01*
X-218837Y84686D01*
X-218867Y84681D01*
X-218886Y84676D01*
X-218906D01*
X-218950Y84681D01*
X-218989Y84691D01*
X-219023Y84705D01*
X-219052Y84725D01*
X-219077Y84745D01*
X-219091Y84759D01*
X-219101Y84769D01*
X-219106Y84774D01*
X-219145Y84837D01*
X-219174Y84910D01*
X-219194Y84984D01*
X-219208Y85052D01*
X-219218Y85115D01*
X-219223Y85169D01*
Y85189D01*
Y85203D01*
Y85208D01*
Y85213D01*
X-219218Y85311D01*
X-219203Y85394D01*
X-219189Y85462D01*
X-219169Y85520D01*
X-219145Y85564D01*
X-219130Y85594D01*
X-219116Y85613D01*
X-219111Y85618D01*
X-219067Y85667D01*
X-219013Y85706D01*
X-218955Y85735D01*
X-218896Y85760D01*
X-218842Y85779D01*
X-218798Y85789D01*
X-218769Y85799D01*
X-218759D01*
X-218784Y86448D01*
X-218862Y86443D01*
X-218940Y86428D01*
X-219013Y86409D01*
X-219081Y86389D01*
X-219199Y86335D01*
X-219252Y86311D01*
X-219301Y86282D01*
X-219345Y86252D01*
X-219384Y86223D01*
X-219418Y86199D01*
X-219443Y86174D01*
X-219462Y86155D01*
X-219477Y86140D01*
X-219487Y86130D01*
X-219491Y86125D01*
X-219540Y86067D01*
X-219579Y85999D01*
X-219618Y85930D01*
X-219648Y85857D01*
X-219696Y85706D01*
X-219726Y85559D01*
X-219735Y85491D01*
X-219745Y85428D01*
X-219750Y85369D01*
X-219755Y85315D01*
X-219760Y85276D01*
Y85242D01*
Y85223D01*
Y85218D01*
X-219755Y85086D01*
X-219740Y84964D01*
X-219726Y84857D01*
X-219706Y84764D01*
X-219682Y84691D01*
X-219672Y84662D01*
X-219667Y84637D01*
X-219657Y84618D01*
X-219653Y84598D01*
X-219648Y84593D01*
Y84588D01*
X-219604Y84496D01*
X-219550Y84417D01*
X-219496Y84349D01*
X-219443Y84295D01*
X-219394Y84252D01*
X-219355Y84217D01*
X-219330Y84198D01*
X-219325Y84193D01*
X-219321D01*
X-219238Y84149D01*
X-219160Y84115D01*
X-219081Y84091D01*
X-219013Y84076D01*
X-218950Y84066D01*
X-218906Y84056D01*
X-218862D01*
X-218794Y84061D01*
X-218725Y84071D01*
X-218662Y84086D01*
X-218603Y84100D01*
X-218491Y84149D01*
X-218398Y84203D01*
X-218359Y84232D01*
X-218320Y84257D01*
X-218291Y84281D01*
X-218267Y84305D01*
X-218247Y84320D01*
X-218232Y84335D01*
X-218223Y84344D01*
X-218218Y84349D01*
X-218184Y84393D01*
X-218149Y84442D01*
X-218086Y84549D01*
X-218032Y84671D01*
X-217988Y84793D01*
X-217949Y84901D01*
X-217935Y84949D01*
X-217925Y84993D01*
X-217915Y85027D01*
X-217905Y85052D01*
X-217901Y85071D01*
Y85076D01*
X-217881Y85150D01*
X-217866Y85213D01*
X-217852Y85272D01*
X-217837Y85325D01*
X-217823Y85374D01*
X-217813Y85413D01*
X-217803Y85452D01*
X-217793Y85481D01*
X-217779Y85530D01*
X-217769Y85564D01*
X-217759Y85584D01*
Y85589D01*
X-217735Y85647D01*
X-217710Y85696D01*
X-217691Y85735D01*
X-217666Y85769D01*
X-217647Y85794D01*
X-217632Y85808D01*
X-217622Y85818D01*
X-217618Y85823D01*
X-217588Y85847D01*
X-217554Y85862D01*
X-217495Y85882D01*
X-217466Y85886D01*
X-217447Y85891D01*
X-217427D01*
X-217364Y85886D01*
X-217305Y85867D01*
X-217251Y85843D01*
X-217208Y85813D01*
X-217169Y85779D01*
X-217144Y85755D01*
X-217125Y85735D01*
X-217120Y85730D01*
X-217076Y85667D01*
X-217042Y85594D01*
X-217022Y85515D01*
X-217003Y85437D01*
X-216993Y85369D01*
X-216988Y85315D01*
Y85291D01*
Y85276D01*
Y85267D01*
Y85262D01*
X-216993Y85154D01*
X-217012Y85062D01*
X-217037Y84984D01*
X-217061Y84915D01*
X-217091Y84862D01*
X-217110Y84823D01*
X-217129Y84798D01*
X-217134Y84788D01*
X-217198Y84730D01*
X-217271Y84681D01*
X-217349Y84642D01*
X-217422Y84613D01*
X-217495Y84588D01*
X-217549Y84574D01*
X-217574Y84569D01*
X-217588D01*
X-217598Y84564D01*
X-217603D01*
X-217539Y83934D01*
X-217442Y83949D01*
X-217349Y83969D01*
X-217261Y83993D01*
X-217183Y84017D01*
X-217110Y84052D01*
X-217042Y84081D01*
X-216983Y84115D01*
X-216925Y84149D01*
X-216881Y84183D01*
X-216837Y84213D01*
X-216803Y84242D01*
X-216773Y84266D01*
X-216749Y84291D01*
X-216734Y84305D01*
X-216724Y84315D01*
X-216720Y84320D01*
X-216671Y84383D01*
X-216627Y84457D01*
X-216593Y84530D01*
X-216559Y84603D01*
X-216534Y84681D01*
X-216510Y84759D01*
X-216476Y84910D01*
X-216466Y84984D01*
X-216456Y85047D01*
X-216451Y85106D01*
X-216446Y85154D01*
X-216441Y85198D01*
Y85233D01*
Y85252D01*
Y85257D01*
X-216446Y85408D01*
X-216461Y85540D01*
X-216476Y85657D01*
X-216500Y85760D01*
X-216510Y85803D01*
X-216519Y85843D01*
X-216529Y85872D01*
X-216534Y85901D01*
X-216544Y85921D01*
X-216549Y85935D01*
X-216554Y85945D01*
Y85950D01*
X-216602Y86052D01*
X-216661Y86135D01*
X-216720Y86213D01*
X-216778Y86272D01*
X-216827Y86321D01*
X-216871Y86355D01*
X-216900Y86379D01*
X-216905Y86384D01*
X-216910D01*
X-217003Y86438D01*
X-217095Y86477D01*
X-217183Y86501D01*
X-217261Y86521D01*
X-217330Y86531D01*
X-217383Y86540D01*
D02*
G37*
G36*
X-216500Y80972D02*
X-219706D01*
Y79996D01*
X-217515Y79425D01*
X-219706Y78845D01*
Y77878D01*
X-216500D01*
Y78479D01*
X-219023D01*
X-216500Y79113D01*
Y79733D01*
X-219023Y80367D01*
X-216500Y80372D01*
Y80972D01*
D02*
G37*
G36*
Y74316D02*
X-219706Y73028D01*
Y72344D01*
X-216500Y71100D01*
Y71783D01*
X-217227Y72047D01*
Y73340D01*
X-216500Y73613D01*
Y74316D01*
D02*
G37*
G36*
Y77527D02*
X-217125Y77137D01*
X-217193Y77093D01*
X-217251Y77054D01*
X-217310Y77019D01*
X-217364Y76980D01*
X-217452Y76922D01*
X-217525Y76868D01*
X-217579Y76824D01*
X-217613Y76795D01*
X-217637Y76775D01*
X-217642Y76771D01*
X-217696Y76717D01*
X-217744Y76658D01*
X-217793Y76600D01*
X-217832Y76546D01*
X-217866Y76497D01*
X-217891Y76458D01*
X-217905Y76434D01*
X-217910Y76429D01*
Y76424D01*
X-217925Y76502D01*
X-217940Y76570D01*
X-217959Y76639D01*
X-217984Y76697D01*
X-218008Y76756D01*
X-218032Y76810D01*
X-218057Y76854D01*
X-218081Y76897D01*
X-218106Y76932D01*
X-218130Y76966D01*
X-218154Y76990D01*
X-218169Y77015D01*
X-218189Y77029D01*
X-218198Y77044D01*
X-218203Y77054D01*
X-218208D01*
X-218252Y77093D01*
X-218301Y77127D01*
X-218398Y77176D01*
X-218501Y77215D01*
X-218594Y77244D01*
X-218676Y77259D01*
X-218711Y77263D01*
X-218745D01*
X-218769Y77268D01*
X-218803D01*
X-218906Y77263D01*
X-219003Y77249D01*
X-219086Y77224D01*
X-219160Y77200D01*
X-219223Y77171D01*
X-219267Y77151D01*
X-219296Y77132D01*
X-219306Y77127D01*
X-219384Y77068D01*
X-219447Y77010D01*
X-219501Y76946D01*
X-219545Y76888D01*
X-219579Y76834D01*
X-219604Y76790D01*
X-219613Y76761D01*
X-219618Y76756D01*
Y76751D01*
X-219633Y76707D01*
X-219648Y76653D01*
X-219667Y76536D01*
X-219687Y76414D01*
X-219696Y76292D01*
X-219701Y76239D01*
Y76185D01*
Y76136D01*
X-219706Y76092D01*
Y76058D01*
Y76034D01*
Y76014D01*
Y76009D01*
Y74657D01*
X-216500D01*
Y75307D01*
X-217837D01*
Y75433D01*
Y75511D01*
X-217832Y75580D01*
X-217827Y75634D01*
X-217818Y75677D01*
X-217813Y75712D01*
X-217803Y75736D01*
X-217798Y75751D01*
Y75756D01*
X-217783Y75795D01*
X-217764Y75829D01*
X-217720Y75892D01*
X-217701Y75917D01*
X-217681Y75936D01*
X-217671Y75946D01*
X-217666Y75951D01*
X-217647Y75970D01*
X-217618Y75990D01*
X-217549Y76043D01*
X-217476Y76102D01*
X-217393Y76156D01*
X-217315Y76209D01*
X-217286Y76234D01*
X-217251Y76253D01*
X-217227Y76268D01*
X-217208Y76283D01*
X-217198Y76287D01*
X-217193Y76292D01*
X-216500Y76751D01*
Y77527D01*
D02*
G37*
G36*
X-80717Y129887D02*
X-81117D01*
Y127335D01*
X-80717D01*
Y129887D01*
D02*
G37*
G36*
X-82483Y132630D02*
X-82532D01*
X-82639Y132625D01*
X-82737Y132610D01*
X-82825Y132586D01*
X-82898Y132566D01*
X-82957Y132542D01*
X-83005Y132518D01*
X-83030Y132503D01*
X-83040Y132498D01*
X-83113Y132444D01*
X-83181Y132391D01*
X-83235Y132332D01*
X-83284Y132274D01*
X-83318Y132225D01*
X-83347Y132186D01*
X-83362Y132157D01*
X-83367Y132152D01*
Y132147D01*
X-83391Y132103D01*
X-83411Y132054D01*
X-83454Y131942D01*
X-83489Y131830D01*
X-83528Y131712D01*
X-83552Y131610D01*
X-83567Y131566D01*
X-83576Y131527D01*
X-83586Y131493D01*
X-83591Y131468D01*
X-83596Y131454D01*
Y131449D01*
X-83615Y131366D01*
X-83640Y131288D01*
X-83659Y131219D01*
X-83679Y131161D01*
X-83693Y131102D01*
X-83713Y131059D01*
X-83728Y131015D01*
X-83747Y130980D01*
X-83762Y130946D01*
X-83772Y130922D01*
X-83791Y130883D01*
X-83806Y130863D01*
X-83811Y130858D01*
X-83845Y130829D01*
X-83874Y130805D01*
X-83908Y130790D01*
X-83938Y130775D01*
X-83967Y130771D01*
X-83986Y130766D01*
X-84006D01*
X-84050Y130771D01*
X-84089Y130780D01*
X-84123Y130795D01*
X-84152Y130815D01*
X-84177Y130834D01*
X-84191Y130849D01*
X-84201Y130858D01*
X-84206Y130863D01*
X-84245Y130927D01*
X-84274Y131000D01*
X-84294Y131073D01*
X-84308Y131141D01*
X-84318Y131205D01*
X-84323Y131259D01*
Y131278D01*
Y131293D01*
Y131298D01*
Y131302D01*
X-84318Y131400D01*
X-84303Y131483D01*
X-84289Y131551D01*
X-84269Y131610D01*
X-84245Y131654D01*
X-84230Y131683D01*
X-84216Y131703D01*
X-84211Y131708D01*
X-84167Y131756D01*
X-84113Y131795D01*
X-84055Y131825D01*
X-83996Y131849D01*
X-83942Y131869D01*
X-83899Y131878D01*
X-83869Y131888D01*
X-83859D01*
X-83884Y132537D01*
X-83962Y132532D01*
X-84040Y132518D01*
X-84113Y132498D01*
X-84181Y132479D01*
X-84299Y132425D01*
X-84352Y132401D01*
X-84401Y132371D01*
X-84445Y132342D01*
X-84484Y132313D01*
X-84518Y132288D01*
X-84543Y132264D01*
X-84562Y132244D01*
X-84577Y132230D01*
X-84587Y132220D01*
X-84591Y132215D01*
X-84640Y132157D01*
X-84679Y132088D01*
X-84718Y132020D01*
X-84748Y131947D01*
X-84796Y131795D01*
X-84826Y131649D01*
X-84835Y131581D01*
X-84845Y131517D01*
X-84850Y131459D01*
X-84855Y131405D01*
X-84860Y131366D01*
Y131332D01*
Y131312D01*
Y131307D01*
X-84855Y131176D01*
X-84840Y131054D01*
X-84826Y130946D01*
X-84806Y130853D01*
X-84782Y130780D01*
X-84772Y130751D01*
X-84767Y130727D01*
X-84757Y130707D01*
X-84753Y130688D01*
X-84748Y130683D01*
Y130678D01*
X-84704Y130585D01*
X-84650Y130507D01*
X-84596Y130439D01*
X-84543Y130385D01*
X-84494Y130341D01*
X-84455Y130307D01*
X-84430Y130287D01*
X-84425Y130283D01*
X-84421D01*
X-84338Y130239D01*
X-84260Y130204D01*
X-84181Y130180D01*
X-84113Y130165D01*
X-84050Y130156D01*
X-84006Y130146D01*
X-83962D01*
X-83894Y130151D01*
X-83825Y130161D01*
X-83762Y130175D01*
X-83703Y130190D01*
X-83591Y130239D01*
X-83498Y130292D01*
X-83459Y130322D01*
X-83420Y130346D01*
X-83391Y130370D01*
X-83367Y130395D01*
X-83347Y130409D01*
X-83332Y130424D01*
X-83323Y130434D01*
X-83318Y130439D01*
X-83284Y130483D01*
X-83249Y130531D01*
X-83186Y130639D01*
X-83132Y130761D01*
X-83088Y130883D01*
X-83049Y130990D01*
X-83035Y131039D01*
X-83025Y131083D01*
X-83015Y131117D01*
X-83005Y131141D01*
X-83001Y131161D01*
Y131166D01*
X-82981Y131239D01*
X-82966Y131302D01*
X-82952Y131361D01*
X-82937Y131415D01*
X-82923Y131464D01*
X-82913Y131503D01*
X-82903Y131542D01*
X-82893Y131571D01*
X-82879Y131620D01*
X-82869Y131654D01*
X-82859Y131673D01*
Y131678D01*
X-82835Y131737D01*
X-82810Y131786D01*
X-82791Y131825D01*
X-82766Y131859D01*
X-82747Y131883D01*
X-82732Y131898D01*
X-82722Y131908D01*
X-82718Y131913D01*
X-82688Y131937D01*
X-82654Y131951D01*
X-82595Y131971D01*
X-82566Y131976D01*
X-82547Y131981D01*
X-82527D01*
X-82464Y131976D01*
X-82405Y131956D01*
X-82351Y131932D01*
X-82308Y131903D01*
X-82269Y131869D01*
X-82244Y131844D01*
X-82225Y131825D01*
X-82220Y131820D01*
X-82176Y131756D01*
X-82142Y131683D01*
X-82122Y131605D01*
X-82103Y131527D01*
X-82093Y131459D01*
X-82088Y131405D01*
Y131381D01*
Y131366D01*
Y131356D01*
Y131351D01*
X-82093Y131244D01*
X-82112Y131151D01*
X-82137Y131073D01*
X-82161Y131005D01*
X-82191Y130951D01*
X-82210Y130912D01*
X-82230Y130888D01*
X-82234Y130878D01*
X-82298Y130819D01*
X-82371Y130771D01*
X-82449Y130731D01*
X-82522Y130702D01*
X-82595Y130678D01*
X-82649Y130663D01*
X-82674Y130658D01*
X-82688D01*
X-82698Y130653D01*
X-82703D01*
X-82639Y130024D01*
X-82542Y130039D01*
X-82449Y130058D01*
X-82361Y130082D01*
X-82283Y130107D01*
X-82210Y130141D01*
X-82142Y130170D01*
X-82083Y130204D01*
X-82025Y130239D01*
X-81981Y130273D01*
X-81937Y130302D01*
X-81903Y130331D01*
X-81873Y130356D01*
X-81849Y130380D01*
X-81834Y130395D01*
X-81824Y130405D01*
X-81820Y130409D01*
X-81771Y130473D01*
X-81727Y130546D01*
X-81693Y130619D01*
X-81659Y130693D01*
X-81634Y130771D01*
X-81610Y130849D01*
X-81576Y131000D01*
X-81566Y131073D01*
X-81556Y131137D01*
X-81551Y131195D01*
X-81546Y131244D01*
X-81541Y131288D01*
Y131322D01*
Y131342D01*
Y131346D01*
X-81546Y131498D01*
X-81561Y131629D01*
X-81576Y131747D01*
X-81600Y131849D01*
X-81610Y131893D01*
X-81620Y131932D01*
X-81629Y131961D01*
X-81634Y131991D01*
X-81644Y132010D01*
X-81649Y132025D01*
X-81654Y132035D01*
Y132039D01*
X-81703Y132142D01*
X-81761Y132225D01*
X-81820Y132303D01*
X-81878Y132361D01*
X-81927Y132410D01*
X-81971Y132444D01*
X-82000Y132469D01*
X-82005Y132474D01*
X-82010D01*
X-82103Y132527D01*
X-82195Y132566D01*
X-82283Y132591D01*
X-82361Y132610D01*
X-82430Y132620D01*
X-82483Y132630D01*
D02*
G37*
G36*
X-84264Y127281D02*
X-84806D01*
Y124749D01*
X-84264D01*
Y125690D01*
X-81600D01*
Y126339D01*
X-84264D01*
Y127281D01*
D02*
G37*
G36*
X-81600Y121435D02*
X-82142D01*
Y119649D01*
X-83010D01*
Y121250D01*
X-83552D01*
Y119649D01*
X-84264D01*
Y121372D01*
X-84806D01*
Y119000D01*
X-81600D01*
Y121435D01*
D02*
G37*
G36*
Y124636D02*
X-83269Y123533D01*
X-84806Y124539D01*
Y123782D01*
X-83845Y123148D01*
X-84806Y122519D01*
Y121762D01*
X-83269Y122767D01*
X-81600Y121660D01*
Y122435D01*
X-82683Y123148D01*
X-81600Y123856D01*
Y124636D01*
D02*
G37*
G36*
X-86700Y90127D02*
X-87242D01*
Y88521D01*
X-89877D01*
Y87872D01*
X-86700D01*
Y90127D01*
D02*
G37*
G36*
Y93479D02*
X-89906Y92191D01*
Y91508D01*
X-86700Y90263D01*
Y90947D01*
X-87427Y91210D01*
Y92503D01*
X-86700Y92777D01*
Y93479D01*
D02*
G37*
G36*
Y87516D02*
X-89906Y86228D01*
Y85544D01*
X-86700Y84300D01*
Y84983D01*
X-87427Y85247D01*
Y86540D01*
X-86700Y86813D01*
Y87516D01*
D02*
G37*
G36*
X-83767Y135636D02*
X-83815D01*
X-83952Y135626D01*
X-84074Y135607D01*
X-84181Y135577D01*
X-84274Y135543D01*
X-84343Y135504D01*
X-84372Y135489D01*
X-84396Y135475D01*
X-84416Y135465D01*
X-84430Y135455D01*
X-84435Y135446D01*
X-84440D01*
X-84523Y135372D01*
X-84591Y135294D01*
X-84650Y135221D01*
X-84689Y135148D01*
X-84723Y135084D01*
X-84743Y135031D01*
X-84748Y135011D01*
X-84753Y135002D01*
X-84757Y134992D01*
Y134987D01*
X-84767Y134948D01*
X-84772Y134904D01*
X-84782Y134850D01*
X-84787Y134792D01*
X-84796Y134665D01*
X-84801Y134533D01*
Y134470D01*
X-84806Y134411D01*
Y134357D01*
Y134313D01*
Y134269D01*
Y134240D01*
Y134221D01*
Y134216D01*
Y133181D01*
X-81600D01*
Y133830D01*
X-82810D01*
Y134250D01*
Y134328D01*
Y134406D01*
X-82815Y134475D01*
Y134538D01*
X-82820Y134601D01*
X-82825Y134655D01*
X-82830Y134704D01*
X-82835Y134748D01*
Y134787D01*
X-82840Y134821D01*
X-82844Y134850D01*
X-82849Y134875D01*
Y134894D01*
X-82854Y134909D01*
Y134914D01*
Y134919D01*
X-82874Y134982D01*
X-82893Y135045D01*
X-82918Y135099D01*
X-82947Y135153D01*
X-82966Y135192D01*
X-82986Y135226D01*
X-83001Y135250D01*
X-83005Y135255D01*
X-83054Y135314D01*
X-83103Y135368D01*
X-83157Y135416D01*
X-83210Y135455D01*
X-83254Y135485D01*
X-83289Y135509D01*
X-83313Y135524D01*
X-83323Y135529D01*
X-83401Y135563D01*
X-83484Y135592D01*
X-83567Y135611D01*
X-83645Y135621D01*
X-83713Y135631D01*
X-83767Y135636D01*
D02*
G37*
G36*
X-81600Y136797D02*
X-84806D01*
Y136148D01*
X-81600D01*
Y136797D01*
D02*
G37*
G36*
X-113303Y177796D02*
X-113546D01*
X-113663Y177788D01*
X-113780Y177772D01*
X-113881Y177757D01*
X-113983Y177733D01*
X-114069Y177710D01*
X-114155Y177686D01*
X-114225Y177663D01*
X-114287Y177639D01*
X-114342Y177616D01*
X-114389Y177593D01*
X-114428Y177569D01*
X-114459Y177553D01*
X-114483Y177538D01*
X-114491Y177530D01*
X-114498D01*
X-114623Y177421D01*
X-114733Y177296D01*
X-114826Y177171D01*
X-114897Y177038D01*
X-114944Y176921D01*
X-114983Y176827D01*
X-114998Y176796D01*
X-115006Y176765D01*
X-115014Y176749D01*
Y176741D01*
X-114131Y176577D01*
X-114100Y176663D01*
X-114061Y176741D01*
X-114022Y176804D01*
X-113983Y176851D01*
X-113952Y176890D01*
X-113920Y176913D01*
X-113905Y176929D01*
X-113897Y176937D01*
X-113835Y176976D01*
X-113772Y176999D01*
X-113631Y177030D01*
X-113577Y177038D01*
X-113530Y177046D01*
X-113483D01*
X-113350Y177038D01*
X-113233Y177030D01*
X-113139Y177007D01*
X-113069Y176983D01*
X-113014Y176960D01*
X-112983Y176944D01*
X-112960Y176929D01*
X-112952Y176921D01*
X-112905Y176866D01*
X-112874Y176804D01*
X-112843Y176741D01*
X-112827Y176671D01*
X-112819Y176609D01*
X-112811Y176562D01*
Y176530D01*
Y176515D01*
Y176421D01*
X-112866Y176398D01*
X-112928Y176374D01*
X-113077Y176335D01*
X-113233Y176296D01*
X-113389Y176257D01*
X-113538Y176226D01*
X-113600Y176210D01*
X-113663Y176202D01*
X-113709Y176195D01*
X-113741Y176187D01*
X-113764Y176179D01*
X-113772D01*
X-113952Y176140D01*
X-114108Y176101D01*
X-114241Y176062D01*
X-114350Y176023D01*
X-114436Y175992D01*
X-114498Y175968D01*
X-114537Y175952D01*
X-114553Y175945D01*
X-114647Y175890D01*
X-114733Y175828D01*
X-114803Y175765D01*
X-114858Y175703D01*
X-114904Y175648D01*
X-114936Y175601D01*
X-114959Y175570D01*
X-114967Y175562D01*
X-115014Y175468D01*
X-115053Y175375D01*
X-115076Y175281D01*
X-115100Y175195D01*
X-115108Y175117D01*
X-115115Y175062D01*
Y175023D01*
Y175007D01*
X-115100Y174836D01*
X-115061Y174680D01*
X-115014Y174547D01*
X-114951Y174430D01*
X-114889Y174336D01*
X-114842Y174266D01*
X-114803Y174226D01*
X-114787Y174211D01*
X-114655Y174109D01*
X-114506Y174031D01*
X-114358Y173984D01*
X-114209Y173945D01*
X-114084Y173922D01*
X-114022Y173914D01*
X-113975D01*
X-113936Y173906D01*
X-113881D01*
X-113764Y173914D01*
X-113647Y173922D01*
X-113546Y173945D01*
X-113460Y173969D01*
X-113382Y173984D01*
X-113319Y174008D01*
X-113288Y174016D01*
X-113272Y174023D01*
X-113163Y174078D01*
X-113069Y174133D01*
X-112975Y174195D01*
X-112897Y174258D01*
X-112827Y174312D01*
X-112780Y174359D01*
X-112741Y174390D01*
X-112733Y174398D01*
X-112725Y174367D01*
X-112718Y174328D01*
X-112702Y174297D01*
Y174289D01*
Y174281D01*
X-112679Y174219D01*
X-112663Y174156D01*
X-112640Y174109D01*
X-112624Y174070D01*
X-112616Y174039D01*
X-112608Y174016D01*
X-112601Y174008D01*
Y174000D01*
X-111632D01*
X-111679Y174101D01*
X-111718Y174187D01*
X-111749Y174273D01*
X-111773Y174344D01*
X-111788Y174406D01*
X-111804Y174453D01*
X-111812Y174484D01*
Y174492D01*
X-111827Y174594D01*
X-111835Y174703D01*
X-111851Y174828D01*
Y174945D01*
X-111859Y175054D01*
Y175140D01*
Y175171D01*
Y175195D01*
Y175210D01*
Y175218D01*
X-111843Y176359D01*
Y176476D01*
X-111851Y176577D01*
X-111859Y176679D01*
X-111866Y176765D01*
X-111874Y176851D01*
X-111882Y176921D01*
X-111898Y176983D01*
X-111905Y177038D01*
X-111937Y177132D01*
X-111952Y177194D01*
X-111968Y177233D01*
X-111976Y177241D01*
X-112030Y177327D01*
X-112101Y177405D01*
X-112179Y177476D01*
X-112249Y177530D01*
X-112319Y177577D01*
X-112374Y177608D01*
X-112413Y177632D01*
X-112429Y177639D01*
X-112491Y177671D01*
X-112562Y177694D01*
X-112718Y177733D01*
X-112882Y177757D01*
X-113038Y177780D01*
X-113186Y177788D01*
X-113249D01*
X-113303Y177796D01*
D02*
G37*
G36*
X-106571Y179147D02*
X-107376D01*
X-107446Y178975D01*
X-107540Y178819D01*
X-107641Y178678D01*
X-107743Y178561D01*
X-107844Y178460D01*
X-107922Y178389D01*
X-107946Y178366D01*
X-107969Y178342D01*
X-107985Y178334D01*
X-107993Y178327D01*
X-108157Y178202D01*
X-108313Y178108D01*
X-108453Y178022D01*
X-108578Y177960D01*
X-108680Y177905D01*
X-108758Y177874D01*
X-108789Y177866D01*
X-108813Y177858D01*
X-108820Y177850D01*
X-108828D01*
Y176960D01*
X-108563Y177061D01*
X-108321Y177179D01*
X-108110Y177296D01*
X-108008Y177358D01*
X-107922Y177421D01*
X-107836Y177476D01*
X-107766Y177530D01*
X-107704Y177577D01*
X-107649Y177616D01*
X-107610Y177655D01*
X-107579Y177679D01*
X-107563Y177694D01*
X-107555Y177702D01*
Y174000D01*
X-106571D01*
Y179147D01*
D02*
G37*
G36*
X-121832Y179131D02*
X-122925D01*
X-124917Y174000D01*
X-123823D01*
X-123402Y175164D01*
X-121332D01*
X-120895Y174000D01*
X-119770D01*
X-121832Y179131D01*
D02*
G37*
G36*
X-118247D02*
X-119231D01*
Y174000D01*
X-118247D01*
Y179131D01*
D02*
G37*
G36*
X-103924Y174984D02*
X-104908D01*
Y174000D01*
X-103924D01*
Y174984D01*
D02*
G37*
G36*
X-104161Y188331D02*
X-107676D01*
Y183200D01*
X-106637D01*
Y185379D01*
X-104497D01*
Y186246D01*
X-106637D01*
Y187464D01*
X-104161D01*
Y188331D01*
D02*
G37*
G36*
X-100998Y188417D02*
X-101092D01*
X-101287Y188409D01*
X-101475Y188386D01*
X-101654Y188355D01*
X-101818Y188308D01*
X-101974Y188253D01*
X-102115Y188191D01*
X-102248Y188128D01*
X-102365Y188066D01*
X-102474Y187995D01*
X-102568Y187933D01*
X-102646Y187870D01*
X-102717Y187816D01*
X-102763Y187769D01*
X-102802Y187738D01*
X-102826Y187714D01*
X-102834Y187706D01*
X-102951Y187566D01*
X-103052Y187417D01*
X-103138Y187261D01*
X-103216Y187097D01*
X-103279Y186933D01*
X-103326Y186761D01*
X-103373Y186605D01*
X-103404Y186441D01*
X-103435Y186293D01*
X-103458Y186160D01*
X-103466Y186035D01*
X-103482Y185926D01*
Y185840D01*
X-103490Y185769D01*
Y185730D01*
Y185715D01*
X-103482Y185496D01*
X-103458Y185285D01*
X-103427Y185090D01*
X-103388Y184910D01*
X-103333Y184739D01*
X-103279Y184582D01*
X-103224Y184434D01*
X-103162Y184309D01*
X-103099Y184192D01*
X-103044Y184090D01*
X-102982Y184004D01*
X-102935Y183934D01*
X-102896Y183879D01*
X-102865Y183840D01*
X-102841Y183817D01*
X-102834Y183809D01*
X-102709Y183684D01*
X-102576Y183583D01*
X-102435Y183489D01*
X-102295Y183411D01*
X-102154Y183341D01*
X-102014Y183286D01*
X-101881Y183239D01*
X-101748Y183200D01*
X-101623Y183169D01*
X-101514Y183153D01*
X-101412Y183138D01*
X-101326Y183122D01*
X-101256D01*
X-101201Y183114D01*
X-101154D01*
X-101006Y183122D01*
X-100858Y183130D01*
X-100725Y183153D01*
X-100592Y183177D01*
X-100475Y183208D01*
X-100366Y183239D01*
X-100264Y183278D01*
X-100170Y183317D01*
X-100084Y183356D01*
X-100006Y183395D01*
X-99944Y183426D01*
X-99889Y183458D01*
X-99850Y183481D01*
X-99819Y183505D01*
X-99803Y183512D01*
X-99796Y183520D01*
X-99694Y183598D01*
X-99608Y183692D01*
X-99444Y183887D01*
X-99311Y184098D01*
X-99210Y184301D01*
X-99163Y184395D01*
X-99124Y184489D01*
X-99093Y184567D01*
X-99069Y184637D01*
X-99046Y184699D01*
X-99030Y184739D01*
X-99022Y184770D01*
Y184778D01*
X-100030Y185090D01*
X-100084Y184887D01*
X-100155Y184723D01*
X-100225Y184575D01*
X-100295Y184457D01*
X-100358Y184371D01*
X-100412Y184301D01*
X-100444Y184270D01*
X-100459Y184254D01*
X-100576Y184168D01*
X-100694Y184106D01*
X-100811Y184059D01*
X-100928Y184028D01*
X-101022Y184012D01*
X-101100Y184004D01*
X-101131Y183997D01*
X-101170D01*
X-101272Y184004D01*
X-101365Y184012D01*
X-101545Y184059D01*
X-101701Y184122D01*
X-101834Y184200D01*
X-101936Y184278D01*
X-102014Y184340D01*
X-102060Y184387D01*
X-102068Y184395D01*
X-102076Y184403D01*
X-102138Y184489D01*
X-102185Y184582D01*
X-102232Y184684D01*
X-102271Y184793D01*
X-102334Y185028D01*
X-102373Y185254D01*
X-102388Y185363D01*
X-102404Y185465D01*
X-102412Y185551D01*
Y185637D01*
X-102420Y185699D01*
Y185754D01*
Y185785D01*
Y185793D01*
X-102412Y185957D01*
X-102404Y186113D01*
X-102388Y186261D01*
X-102365Y186387D01*
X-102342Y186511D01*
X-102310Y186621D01*
X-102279Y186714D01*
X-102240Y186800D01*
X-102209Y186879D01*
X-102178Y186941D01*
X-102146Y186996D01*
X-102123Y187042D01*
X-102100Y187074D01*
X-102084Y187105D01*
X-102068Y187113D01*
Y187121D01*
X-101998Y187191D01*
X-101928Y187261D01*
X-101849Y187316D01*
X-101779Y187363D01*
X-101623Y187433D01*
X-101475Y187480D01*
X-101342Y187511D01*
X-101287Y187519D01*
X-101240Y187527D01*
X-101201Y187534D01*
X-101147D01*
X-100998Y187527D01*
X-100865Y187496D01*
X-100741Y187464D01*
X-100639Y187417D01*
X-100553Y187378D01*
X-100498Y187339D01*
X-100459Y187308D01*
X-100444Y187300D01*
X-100342Y187206D01*
X-100264Y187105D01*
X-100194Y187004D01*
X-100147Y186902D01*
X-100108Y186808D01*
X-100077Y186738D01*
X-100069Y186691D01*
X-100061Y186683D01*
Y186676D01*
X-99038Y186918D01*
X-99108Y187136D01*
X-99194Y187324D01*
X-99288Y187480D01*
X-99374Y187613D01*
X-99452Y187722D01*
X-99514Y187792D01*
X-99553Y187839D01*
X-99561Y187855D01*
X-99569D01*
X-99686Y187956D01*
X-99803Y188042D01*
X-99928Y188112D01*
X-100053Y188183D01*
X-100178Y188237D01*
X-100311Y188277D01*
X-100428Y188316D01*
X-100553Y188347D01*
X-100662Y188370D01*
X-100764Y188386D01*
X-100858Y188401D01*
X-100936Y188409D01*
X-100998Y188417D01*
D02*
G37*
G36*
X-115904Y179217D02*
X-115974D01*
X-116123Y179209D01*
X-116256Y179194D01*
X-116373Y179170D01*
X-116474Y179147D01*
X-116552Y179116D01*
X-116615Y179092D01*
X-116646Y179077D01*
X-116662Y179069D01*
X-116755Y179006D01*
X-116833Y178944D01*
X-116896Y178881D01*
X-116943Y178819D01*
X-116982Y178772D01*
X-117005Y178725D01*
X-117021Y178694D01*
X-117029Y178686D01*
X-117060Y178592D01*
X-117084Y178483D01*
X-117099Y178366D01*
X-117107Y178256D01*
X-117115Y178155D01*
X-117122Y178069D01*
Y178038D01*
Y178014D01*
Y177999D01*
Y177991D01*
Y177718D01*
X-117669D01*
Y176944D01*
X-117122D01*
Y174000D01*
X-116139D01*
Y176944D01*
X-115404D01*
Y177718D01*
X-116139D01*
Y177975D01*
X-116131Y178077D01*
X-116123Y178155D01*
X-116107Y178225D01*
X-116092Y178280D01*
X-116076Y178319D01*
X-116060Y178342D01*
X-116045Y178358D01*
Y178366D01*
X-116006Y178397D01*
X-115959Y178428D01*
X-115857Y178452D01*
X-115810Y178460D01*
X-115771Y178467D01*
X-115740D01*
X-115576Y178460D01*
X-115498Y178452D01*
X-115428Y178436D01*
X-115365Y178428D01*
X-115318Y178413D01*
X-115287Y178405D01*
X-115279D01*
X-115147Y179092D01*
X-115295Y179131D01*
X-115443Y179162D01*
X-115584Y179186D01*
X-115709Y179201D01*
X-115818Y179209D01*
X-115904Y179217D01*
D02*
G37*
G36*
X-110917Y188417D02*
X-110964D01*
X-111175Y188409D01*
X-111378Y188386D01*
X-111565Y188355D01*
X-111737Y188308D01*
X-111901Y188253D01*
X-112049Y188198D01*
X-112190Y188128D01*
X-112307Y188066D01*
X-112424Y188003D01*
X-112518Y187941D01*
X-112604Y187878D01*
X-112666Y187823D01*
X-112721Y187777D01*
X-112760Y187745D01*
X-112784Y187722D01*
X-112791Y187714D01*
X-112908Y187581D01*
X-113010Y187433D01*
X-113096Y187277D01*
X-113174Y187113D01*
X-113236Y186957D01*
X-113291Y186793D01*
X-113338Y186629D01*
X-113369Y186480D01*
X-113400Y186332D01*
X-113416Y186199D01*
X-113432Y186074D01*
X-113447Y185973D01*
Y185879D01*
X-113455Y185816D01*
Y185777D01*
Y185762D01*
X-113447Y185535D01*
X-113424Y185317D01*
X-113393Y185113D01*
X-113354Y184918D01*
X-113299Y184746D01*
X-113244Y184582D01*
X-113182Y184442D01*
X-113119Y184309D01*
X-113065Y184192D01*
X-113002Y184090D01*
X-112948Y184004D01*
X-112893Y183926D01*
X-112854Y183872D01*
X-112823Y183833D01*
X-112799Y183809D01*
X-112791Y183801D01*
X-112659Y183676D01*
X-112518Y183575D01*
X-112370Y183481D01*
X-112221Y183403D01*
X-112065Y183333D01*
X-111909Y183278D01*
X-111760Y183231D01*
X-111612Y183192D01*
X-111479Y183161D01*
X-111346Y183145D01*
X-111237Y183130D01*
X-111136Y183114D01*
X-111050D01*
X-110995Y183106D01*
X-110940D01*
X-110714Y183114D01*
X-110503Y183138D01*
X-110316Y183177D01*
X-110152Y183216D01*
X-110081Y183239D01*
X-110011Y183255D01*
X-109956Y183278D01*
X-109909Y183294D01*
X-109870Y183301D01*
X-109847Y183317D01*
X-109831Y183325D01*
X-109824D01*
X-109706Y183247D01*
X-109613Y183184D01*
X-109519Y183122D01*
X-109449Y183075D01*
X-109378Y183028D01*
X-109324Y182997D01*
X-109277Y182966D01*
X-109238Y182934D01*
X-109183Y182903D01*
X-109152Y182880D01*
X-109136Y182872D01*
X-108972Y182794D01*
X-108894Y182763D01*
X-108824Y182731D01*
X-108761Y182708D01*
X-108714Y182692D01*
X-108683Y182677D01*
X-108676D01*
X-108293Y183411D01*
X-108457Y183473D01*
X-108613Y183544D01*
X-108754Y183614D01*
X-108879Y183684D01*
X-108980Y183747D01*
X-109058Y183794D01*
X-109082Y183817D01*
X-109105Y183825D01*
X-109113Y183840D01*
X-109121D01*
X-109011Y183973D01*
X-108925Y184106D01*
X-108847Y184239D01*
X-108785Y184348D01*
X-108738Y184450D01*
X-108699Y184528D01*
X-108691Y184551D01*
X-108683Y184575D01*
X-108676Y184582D01*
Y184590D01*
X-108613Y184785D01*
X-108566Y184981D01*
X-108535Y185176D01*
X-108511Y185363D01*
X-108504Y185442D01*
X-108496Y185520D01*
Y185582D01*
X-108488Y185644D01*
Y185691D01*
Y185723D01*
Y185746D01*
Y185754D01*
X-108496Y185988D01*
X-108519Y186199D01*
X-108551Y186402D01*
X-108590Y186597D01*
X-108644Y186769D01*
X-108699Y186933D01*
X-108761Y187074D01*
X-108824Y187206D01*
X-108886Y187324D01*
X-108949Y187425D01*
X-109003Y187511D01*
X-109058Y187589D01*
X-109097Y187644D01*
X-109128Y187683D01*
X-109152Y187706D01*
X-109160Y187714D01*
X-109292Y187839D01*
X-109425Y187949D01*
X-109574Y188042D01*
X-109722Y188120D01*
X-109870Y188191D01*
X-110019Y188245D01*
X-110167Y188292D01*
X-110308Y188331D01*
X-110441Y188355D01*
X-110565Y188378D01*
X-110683Y188394D01*
X-110776Y188409D01*
X-110854D01*
X-110917Y188417D01*
D02*
G37*
G36*
X-79681Y66762D02*
X-79686D01*
X-79881Y66133D01*
X-79754Y66099D01*
X-79652Y66055D01*
X-79559Y66011D01*
X-79486Y65967D01*
X-79432Y65928D01*
X-79388Y65894D01*
X-79369Y65874D01*
X-79359Y65864D01*
X-79305Y65791D01*
X-79266Y65718D01*
X-79237Y65645D01*
X-79217Y65572D01*
X-79207Y65513D01*
X-79203Y65464D01*
X-79198Y65445D01*
Y65430D01*
Y65425D01*
Y65420D01*
X-79203Y65357D01*
X-79207Y65298D01*
X-79237Y65186D01*
X-79276Y65088D01*
X-79325Y65005D01*
X-79373Y64942D01*
X-79413Y64893D01*
X-79442Y64864D01*
X-79447Y64859D01*
X-79452Y64854D01*
X-79505Y64815D01*
X-79564Y64786D01*
X-79627Y64757D01*
X-79695Y64732D01*
X-79842Y64693D01*
X-79983Y64669D01*
X-80052Y64659D01*
X-80115Y64649D01*
X-80169Y64644D01*
X-80223D01*
X-80262Y64640D01*
X-80320D01*
X-80423Y64644D01*
X-80520Y64649D01*
X-80613Y64659D01*
X-80691Y64674D01*
X-80769Y64688D01*
X-80837Y64708D01*
X-80896Y64727D01*
X-80950Y64752D01*
X-80998Y64771D01*
X-81037Y64791D01*
X-81072Y64810D01*
X-81101Y64825D01*
X-81121Y64840D01*
X-81140Y64849D01*
X-81145Y64859D01*
X-81150D01*
X-81194Y64903D01*
X-81238Y64947D01*
X-81272Y64996D01*
X-81301Y65040D01*
X-81345Y65137D01*
X-81374Y65230D01*
X-81394Y65313D01*
X-81399Y65347D01*
X-81403Y65376D01*
X-81408Y65401D01*
Y65420D01*
Y65430D01*
Y65435D01*
X-81403Y65528D01*
X-81384Y65611D01*
X-81365Y65689D01*
X-81335Y65752D01*
X-81311Y65806D01*
X-81286Y65840D01*
X-81267Y65864D01*
X-81262Y65874D01*
X-81203Y65938D01*
X-81140Y65986D01*
X-81077Y66030D01*
X-81013Y66060D01*
X-80955Y66084D01*
X-80911Y66104D01*
X-80881Y66108D01*
X-80876Y66113D01*
X-80872D01*
X-81023Y66753D01*
X-81160Y66709D01*
X-81277Y66655D01*
X-81374Y66596D01*
X-81457Y66543D01*
X-81525Y66494D01*
X-81569Y66455D01*
X-81599Y66430D01*
X-81608Y66426D01*
Y66421D01*
X-81672Y66347D01*
X-81726Y66274D01*
X-81770Y66196D01*
X-81813Y66118D01*
X-81848Y66040D01*
X-81872Y65957D01*
X-81896Y65884D01*
X-81916Y65806D01*
X-81931Y65737D01*
X-81940Y65674D01*
X-81950Y65615D01*
X-81955Y65567D01*
X-81960Y65528D01*
Y65494D01*
Y65474D01*
Y65469D01*
X-81955Y65347D01*
X-81940Y65230D01*
X-81921Y65118D01*
X-81892Y65015D01*
X-81857Y64918D01*
X-81818Y64830D01*
X-81779Y64747D01*
X-81740Y64674D01*
X-81696Y64605D01*
X-81657Y64547D01*
X-81618Y64498D01*
X-81584Y64454D01*
X-81555Y64425D01*
X-81535Y64400D01*
X-81521Y64386D01*
X-81516Y64381D01*
X-81428Y64308D01*
X-81335Y64244D01*
X-81238Y64191D01*
X-81135Y64142D01*
X-81033Y64103D01*
X-80925Y64073D01*
X-80828Y64044D01*
X-80725Y64025D01*
X-80633Y64005D01*
X-80550Y63990D01*
X-80471Y63986D01*
X-80403Y63976D01*
X-80349D01*
X-80305Y63971D01*
X-80271D01*
X-80135Y63976D01*
X-80003Y63990D01*
X-79881Y64010D01*
X-79769Y64034D01*
X-79661Y64069D01*
X-79564Y64103D01*
X-79471Y64137D01*
X-79393Y64176D01*
X-79320Y64215D01*
X-79256Y64249D01*
X-79203Y64288D01*
X-79159Y64317D01*
X-79125Y64342D01*
X-79100Y64361D01*
X-79085Y64376D01*
X-79081Y64381D01*
X-79003Y64459D01*
X-78939Y64542D01*
X-78881Y64630D01*
X-78832Y64718D01*
X-78788Y64805D01*
X-78754Y64893D01*
X-78724Y64976D01*
X-78700Y65059D01*
X-78680Y65137D01*
X-78671Y65206D01*
X-78661Y65269D01*
X-78651Y65323D01*
Y65367D01*
X-78646Y65401D01*
Y65425D01*
Y65430D01*
X-78651Y65523D01*
X-78656Y65615D01*
X-78671Y65698D01*
X-78685Y65781D01*
X-78705Y65855D01*
X-78724Y65923D01*
X-78749Y65986D01*
X-78773Y66045D01*
X-78798Y66099D01*
X-78822Y66147D01*
X-78842Y66186D01*
X-78861Y66221D01*
X-78876Y66245D01*
X-78890Y66265D01*
X-78895Y66274D01*
X-78900Y66279D01*
X-78949Y66343D01*
X-79007Y66396D01*
X-79129Y66499D01*
X-79261Y66582D01*
X-79388Y66645D01*
X-79447Y66675D01*
X-79505Y66699D01*
X-79554Y66718D01*
X-79598Y66733D01*
X-79637Y66748D01*
X-79661Y66757D01*
X-79681Y66762D01*
D02*
G37*
G36*
X-78700Y60516D02*
X-81906Y59228D01*
Y58544D01*
X-78700Y57300D01*
Y57983D01*
X-79427Y58247D01*
Y59540D01*
X-78700Y59813D01*
Y60516D01*
D02*
G37*
G36*
X-80203Y63537D02*
X-80271D01*
X-80432Y63532D01*
X-80579Y63522D01*
X-80711Y63503D01*
X-80764Y63493D01*
X-80818Y63483D01*
X-80867Y63473D01*
X-80906Y63463D01*
X-80945Y63454D01*
X-80974Y63444D01*
X-80998Y63439D01*
X-81013Y63434D01*
X-81023Y63429D01*
X-81028D01*
X-81140Y63385D01*
X-81238Y63337D01*
X-81325Y63288D01*
X-81403Y63239D01*
X-81462Y63190D01*
X-81506Y63156D01*
X-81535Y63132D01*
X-81545Y63127D01*
Y63122D01*
X-81618Y63044D01*
X-81682Y62961D01*
X-81735Y62883D01*
X-81774Y62809D01*
X-81804Y62741D01*
X-81828Y62692D01*
X-81833Y62673D01*
X-81838Y62658D01*
X-81843Y62648D01*
Y62644D01*
X-81862Y62556D01*
X-81882Y62458D01*
X-81892Y62361D01*
X-81896Y62258D01*
X-81901Y62170D01*
X-81906Y62131D01*
Y62102D01*
Y62073D01*
Y62053D01*
Y62038D01*
Y62034D01*
Y60857D01*
X-78700D01*
Y62068D01*
X-78705Y62195D01*
X-78710Y62312D01*
X-78720Y62409D01*
X-78734Y62487D01*
X-78744Y62556D01*
X-78754Y62600D01*
X-78759Y62629D01*
X-78763Y62639D01*
X-78803Y62741D01*
X-78842Y62829D01*
X-78885Y62907D01*
X-78929Y62975D01*
X-78964Y63024D01*
X-78993Y63063D01*
X-79017Y63083D01*
X-79022Y63093D01*
X-79110Y63171D01*
X-79203Y63239D01*
X-79295Y63297D01*
X-79388Y63346D01*
X-79466Y63385D01*
X-79500Y63400D01*
X-79530Y63415D01*
X-79554Y63424D01*
X-79574Y63429D01*
X-79583Y63434D01*
X-79588D01*
X-79700Y63468D01*
X-79817Y63493D01*
X-79930Y63512D01*
X-80037Y63522D01*
X-80130Y63532D01*
X-80169D01*
X-80203Y63537D01*
D02*
G37*
G36*
X-101385Y179147D02*
X-101456D01*
X-101588Y179139D01*
X-101721Y179123D01*
X-101838Y179100D01*
X-101955Y179061D01*
X-102057Y179022D01*
X-102151Y178983D01*
X-102237Y178928D01*
X-102315Y178881D01*
X-102385Y178834D01*
X-102447Y178788D01*
X-102502Y178741D01*
X-102541Y178702D01*
X-102573Y178663D01*
X-102604Y178639D01*
X-102611Y178623D01*
X-102619Y178616D01*
X-102705Y178491D01*
X-102783Y178342D01*
X-102854Y178186D01*
X-102908Y178022D01*
X-102955Y177850D01*
X-102994Y177679D01*
X-103057Y177335D01*
X-103080Y177171D01*
X-103096Y177023D01*
X-103104Y176890D01*
X-103111Y176765D01*
X-103119Y176671D01*
Y176593D01*
Y176546D01*
Y176538D01*
Y176530D01*
X-103111Y176265D01*
X-103096Y176015D01*
X-103080Y175796D01*
X-103049Y175585D01*
X-103018Y175398D01*
X-102979Y175234D01*
X-102932Y175086D01*
X-102893Y174953D01*
X-102854Y174836D01*
X-102807Y174734D01*
X-102768Y174656D01*
X-102736Y174594D01*
X-102705Y174539D01*
X-102682Y174508D01*
X-102674Y174484D01*
X-102666Y174476D01*
X-102580Y174375D01*
X-102479Y174289D01*
X-102385Y174211D01*
X-102284Y174148D01*
X-102182Y174094D01*
X-102081Y174047D01*
X-101979Y174008D01*
X-101885Y173977D01*
X-101799Y173953D01*
X-101713Y173937D01*
X-101643Y173922D01*
X-101581Y173914D01*
X-101526D01*
X-101487Y173906D01*
X-101456D01*
X-101323Y173914D01*
X-101190Y173930D01*
X-101073Y173953D01*
X-100964Y173992D01*
X-100862Y174031D01*
X-100761Y174070D01*
X-100675Y174117D01*
X-100597Y174172D01*
X-100526Y174219D01*
X-100472Y174266D01*
X-100417Y174305D01*
X-100378Y174351D01*
X-100339Y174383D01*
X-100315Y174406D01*
X-100308Y174422D01*
X-100300Y174430D01*
X-100214Y174555D01*
X-100136Y174703D01*
X-100066Y174859D01*
X-100003Y175023D01*
X-99956Y175195D01*
X-99917Y175367D01*
X-99855Y175710D01*
X-99831Y175874D01*
X-99816Y176031D01*
X-99808Y176163D01*
X-99800Y176288D01*
X-99792Y176382D01*
Y176460D01*
Y176507D01*
Y176515D01*
Y176523D01*
X-99800Y176788D01*
X-99816Y177030D01*
X-99839Y177257D01*
X-99870Y177468D01*
X-99909Y177655D01*
X-99948Y177827D01*
X-99995Y177975D01*
X-100042Y178116D01*
X-100089Y178233D01*
X-100136Y178334D01*
X-100175Y178420D01*
X-100214Y178491D01*
X-100245Y178538D01*
X-100268Y178577D01*
X-100284Y178600D01*
X-100292Y178608D01*
X-100378Y178702D01*
X-100464Y178788D01*
X-100557Y178858D01*
X-100651Y178920D01*
X-100745Y178975D01*
X-100847Y179014D01*
X-100940Y179053D01*
X-101034Y179077D01*
X-101120Y179100D01*
X-101198Y179116D01*
X-101268Y179131D01*
X-101331Y179139D01*
X-101385Y179147D01*
D02*
G37*
G36*
X-219706Y90976D02*
Y90322D01*
X-217466Y89834D01*
X-219706Y89268D01*
Y88502D01*
X-217500Y87916D01*
X-219706Y87443D01*
Y86779D01*
X-216500Y87526D01*
Y88239D01*
X-218896Y88873D01*
X-216500Y89512D01*
Y90205D01*
X-219706Y90976D01*
D02*
G37*
%LPD*%
G36*
X-101393Y178327D02*
X-101339Y178319D01*
X-101284Y178296D01*
X-101237Y178280D01*
X-101206Y178256D01*
X-101174Y178233D01*
X-101159Y178225D01*
X-101151Y178217D01*
X-101104Y178163D01*
X-101057Y178100D01*
X-100987Y177944D01*
X-100956Y177874D01*
X-100940Y177819D01*
X-100925Y177780D01*
Y177772D01*
Y177764D01*
X-100909Y177694D01*
X-100893Y177616D01*
X-100878Y177522D01*
X-100870Y177429D01*
X-100854Y177225D01*
X-100839Y177015D01*
Y176921D01*
Y176827D01*
X-100831Y176741D01*
Y176671D01*
Y176609D01*
Y176562D01*
Y176530D01*
Y176523D01*
Y176359D01*
X-100839Y176210D01*
Y176070D01*
X-100847Y175937D01*
X-100854Y175820D01*
X-100862Y175718D01*
X-100870Y175625D01*
X-100878Y175539D01*
X-100893Y175468D01*
X-100901Y175406D01*
X-100909Y175351D01*
X-100917Y175312D01*
X-100925Y175273D01*
Y175250D01*
X-100932Y175242D01*
Y175234D01*
X-100964Y175132D01*
X-101003Y175047D01*
X-101034Y174976D01*
X-101073Y174922D01*
X-101104Y174882D01*
X-101128Y174851D01*
X-101143Y174836D01*
X-101151Y174828D01*
X-101206Y174789D01*
X-101253Y174765D01*
X-101354Y174734D01*
X-101393Y174726D01*
X-101424Y174718D01*
X-101456D01*
X-101518Y174726D01*
X-101581Y174734D01*
X-101635Y174750D01*
X-101682Y174773D01*
X-101721Y174797D01*
X-101752Y174812D01*
X-101768Y174820D01*
X-101776Y174828D01*
X-101823Y174882D01*
X-101870Y174945D01*
X-101901Y175015D01*
X-101932Y175093D01*
X-101963Y175164D01*
X-101979Y175218D01*
X-101987Y175257D01*
X-101995Y175273D01*
X-102010Y175343D01*
X-102026Y175429D01*
X-102034Y175515D01*
X-102041Y175617D01*
X-102057Y175820D01*
X-102073Y176031D01*
Y176124D01*
Y176218D01*
X-102081Y176304D01*
Y176374D01*
Y176437D01*
Y176484D01*
Y176515D01*
Y176523D01*
Y176687D01*
X-102073Y176835D01*
Y176976D01*
X-102065Y177108D01*
X-102057Y177225D01*
X-102049Y177327D01*
X-102041Y177421D01*
X-102034Y177507D01*
X-102026Y177577D01*
X-102018Y177639D01*
X-102010Y177694D01*
X-102002Y177741D01*
X-101995Y177772D01*
X-101987Y177796D01*
Y177804D01*
Y177811D01*
X-101955Y177913D01*
X-101924Y177999D01*
X-101885Y178069D01*
X-101854Y178124D01*
X-101823Y178163D01*
X-101799Y178194D01*
X-101784Y178210D01*
X-101776Y178217D01*
X-101721Y178256D01*
X-101666Y178288D01*
X-101612Y178303D01*
X-101565Y178319D01*
X-101518Y178327D01*
X-101487Y178334D01*
X-101456D01*
X-101393Y178327D01*
D02*
G37*
G36*
X-121668Y176031D02*
X-123082D01*
X-122387Y177936D01*
X-121668Y176031D01*
D02*
G37*
G36*
X-110854Y187527D02*
X-110745Y187519D01*
X-110644Y187496D01*
X-110542Y187464D01*
X-110370Y187394D01*
X-110222Y187316D01*
X-110159Y187269D01*
X-110105Y187230D01*
X-110058Y187191D01*
X-110019Y187160D01*
X-109988Y187128D01*
X-109964Y187105D01*
X-109956Y187097D01*
X-109949Y187089D01*
X-109878Y187004D01*
X-109816Y186910D01*
X-109769Y186808D01*
X-109722Y186699D01*
X-109652Y186480D01*
X-109605Y186261D01*
X-109589Y186160D01*
X-109581Y186066D01*
X-109566Y185980D01*
Y185910D01*
X-109558Y185848D01*
Y185801D01*
Y185769D01*
Y185762D01*
X-109566Y185606D01*
X-109574Y185465D01*
X-109589Y185332D01*
X-109605Y185215D01*
X-109628Y185129D01*
X-109644Y185059D01*
X-109652Y185012D01*
X-109660Y185004D01*
Y184996D01*
X-109699Y184879D01*
X-109746Y184762D01*
X-109800Y184668D01*
X-109847Y184582D01*
X-109886Y184520D01*
X-109925Y184465D01*
X-109949Y184434D01*
X-109956Y184426D01*
X-110128Y184551D01*
X-110300Y184660D01*
X-110464Y184754D01*
X-110612Y184832D01*
X-110737Y184887D01*
X-110792Y184910D01*
X-110839Y184934D01*
X-110878Y184949D01*
X-110901Y184957D01*
X-110917Y184965D01*
X-110925D01*
X-111214Y184364D01*
X-111097Y184317D01*
X-110979Y184262D01*
X-110870Y184207D01*
X-110776Y184153D01*
X-110698Y184106D01*
X-110636Y184067D01*
X-110597Y184044D01*
X-110581Y184036D01*
X-110730Y183997D01*
X-110800Y183981D01*
X-110862Y183973D01*
X-110917D01*
X-110964Y183965D01*
X-111003D01*
X-111112Y183973D01*
X-111222Y183981D01*
X-111315Y184004D01*
X-111409Y184036D01*
X-111581Y184106D01*
X-111721Y184192D01*
X-111838Y184270D01*
X-111885Y184309D01*
X-111924Y184340D01*
X-111956Y184371D01*
X-111979Y184395D01*
X-111987Y184403D01*
X-111995Y184411D01*
X-112065Y184496D01*
X-112120Y184598D01*
X-112174Y184699D01*
X-112221Y184809D01*
X-112292Y185035D01*
X-112338Y185254D01*
X-112354Y185356D01*
X-112362Y185449D01*
X-112370Y185535D01*
X-112377Y185613D01*
X-112385Y185676D01*
Y185723D01*
Y185754D01*
Y185762D01*
X-112377Y185926D01*
X-112370Y186074D01*
X-112346Y186215D01*
X-112323Y186340D01*
X-112292Y186465D01*
X-112260Y186566D01*
X-112229Y186668D01*
X-112190Y186753D01*
X-112151Y186832D01*
X-112120Y186902D01*
X-112088Y186957D01*
X-112057Y187004D01*
X-112034Y187042D01*
X-112010Y187066D01*
X-112003Y187082D01*
X-111995Y187089D01*
X-111917Y187168D01*
X-111838Y187238D01*
X-111753Y187292D01*
X-111667Y187347D01*
X-111581Y187394D01*
X-111503Y187425D01*
X-111339Y187480D01*
X-111190Y187511D01*
X-111128Y187519D01*
X-111073Y187527D01*
X-111034Y187534D01*
X-110972D01*
X-110854Y187527D01*
D02*
G37*
G36*
X-79969Y58447D02*
X-81160Y58881D01*
X-79969Y59330D01*
Y58447D01*
D02*
G37*
G36*
X-83757Y134962D02*
X-83708Y134958D01*
X-83664Y134943D01*
X-83630Y134933D01*
X-83601Y134919D01*
X-83576Y134904D01*
X-83562Y134899D01*
X-83557Y134894D01*
X-83518Y134865D01*
X-83489Y134831D01*
X-83459Y134797D01*
X-83440Y134762D01*
X-83420Y134733D01*
X-83411Y134709D01*
X-83406Y134694D01*
X-83401Y134689D01*
X-83391Y134665D01*
X-83386Y134631D01*
X-83371Y134557D01*
X-83362Y134475D01*
X-83357Y134387D01*
Y134309D01*
X-83352Y134274D01*
Y134245D01*
Y134216D01*
Y134196D01*
Y134187D01*
Y134182D01*
Y133830D01*
X-84264D01*
Y134138D01*
Y134201D01*
Y134260D01*
Y134313D01*
X-84260Y134357D01*
X-84255Y134440D01*
Y134504D01*
X-84250Y134548D01*
X-84245Y134577D01*
X-84240Y134597D01*
Y134601D01*
X-84225Y134660D01*
X-84206Y134709D01*
X-84181Y134757D01*
X-84157Y134792D01*
X-84133Y134826D01*
X-84113Y134845D01*
X-84099Y134860D01*
X-84094Y134865D01*
X-84050Y134899D01*
X-84001Y134923D01*
X-83952Y134943D01*
X-83908Y134953D01*
X-83869Y134962D01*
X-83835Y134967D01*
X-83806D01*
X-83757Y134962D01*
D02*
G37*
G36*
X-80169Y62863D02*
X-80052Y62858D01*
X-79949Y62849D01*
X-79866Y62834D01*
X-79798Y62819D01*
X-79749Y62809D01*
X-79735Y62805D01*
X-79720D01*
X-79715Y62800D01*
X-79710D01*
X-79637Y62775D01*
X-79574Y62746D01*
X-79520Y62722D01*
X-79476Y62692D01*
X-79442Y62668D01*
X-79422Y62653D01*
X-79408Y62639D01*
X-79403Y62634D01*
X-79369Y62595D01*
X-79344Y62551D01*
X-79300Y62463D01*
X-79290Y62429D01*
X-79281Y62400D01*
X-79271Y62375D01*
Y62370D01*
X-79261Y62322D01*
X-79256Y62263D01*
X-79247Y62195D01*
Y62136D01*
X-79242Y62077D01*
Y62029D01*
Y62009D01*
Y61995D01*
Y61990D01*
Y61985D01*
Y61507D01*
X-81365D01*
Y61795D01*
Y61863D01*
Y61931D01*
X-81360Y61990D01*
Y62043D01*
X-81355Y62092D01*
Y62131D01*
X-81350Y62170D01*
Y62204D01*
X-81340Y62258D01*
X-81335Y62292D01*
X-81330Y62317D01*
Y62322D01*
X-81311Y62385D01*
X-81291Y62444D01*
X-81267Y62497D01*
X-81243Y62536D01*
X-81218Y62570D01*
X-81199Y62600D01*
X-81184Y62614D01*
X-81179Y62619D01*
X-81135Y62663D01*
X-81081Y62697D01*
X-81033Y62727D01*
X-80979Y62756D01*
X-80935Y62775D01*
X-80901Y62790D01*
X-80876Y62795D01*
X-80867Y62800D01*
X-80789Y62824D01*
X-80696Y62839D01*
X-80603Y62853D01*
X-80510Y62858D01*
X-80427Y62863D01*
X-80393Y62868D01*
X-80301D01*
X-80169Y62863D01*
D02*
G37*
G36*
X-87969Y91410D02*
X-89160Y91844D01*
X-87969Y92293D01*
Y91410D01*
D02*
G37*
G36*
X-88911Y95758D02*
X-88867Y95753D01*
X-88823Y95744D01*
X-88789Y95729D01*
X-88759Y95714D01*
X-88740Y95705D01*
X-88725Y95700D01*
X-88720Y95695D01*
X-88686Y95670D01*
X-88662Y95641D01*
X-88618Y95583D01*
X-88608Y95553D01*
X-88598Y95534D01*
X-88589Y95519D01*
Y95514D01*
X-88584Y95490D01*
X-88574Y95456D01*
X-88569Y95421D01*
X-88564Y95378D01*
X-88559Y95285D01*
X-88554Y95187D01*
X-88550Y95095D01*
Y95056D01*
Y95016D01*
Y94987D01*
Y94963D01*
Y94948D01*
Y94943D01*
Y94470D01*
X-89364D01*
Y94968D01*
Y95036D01*
Y95099D01*
Y95158D01*
Y95207D01*
X-89360Y95251D01*
Y95290D01*
Y95319D01*
Y95348D01*
X-89355Y95392D01*
Y95417D01*
X-89350Y95431D01*
Y95436D01*
X-89335Y95490D01*
X-89321Y95539D01*
X-89301Y95578D01*
X-89277Y95612D01*
X-89257Y95641D01*
X-89238Y95661D01*
X-89228Y95670D01*
X-89223Y95675D01*
X-89184Y95705D01*
X-89140Y95724D01*
X-89096Y95744D01*
X-89057Y95753D01*
X-89023Y95758D01*
X-88994Y95763D01*
X-88964D01*
X-88911Y95758D01*
D02*
G37*
G36*
X-87969Y85447D02*
X-89160Y85881D01*
X-87969Y86330D01*
Y85447D01*
D02*
G37*
G36*
X-112811Y175578D02*
Y175453D01*
X-112819Y175359D01*
X-112827Y175273D01*
Y175210D01*
X-112835Y175156D01*
X-112843Y175125D01*
X-112850Y175109D01*
Y175101D01*
X-112882Y175031D01*
X-112913Y174968D01*
X-112952Y174914D01*
X-112991Y174867D01*
X-113030Y174828D01*
X-113054Y174797D01*
X-113077Y174781D01*
X-113085Y174773D01*
X-113179Y174718D01*
X-113264Y174672D01*
X-113350Y174640D01*
X-113428Y174625D01*
X-113499Y174609D01*
X-113546Y174601D01*
X-113592D01*
X-113678Y174609D01*
X-113749Y174625D01*
X-113819Y174648D01*
X-113874Y174680D01*
X-113920Y174703D01*
X-113952Y174726D01*
X-113975Y174742D01*
X-113983Y174750D01*
X-114030Y174804D01*
X-114069Y174867D01*
X-114092Y174929D01*
X-114116Y174984D01*
X-114123Y175031D01*
X-114131Y175078D01*
Y175101D01*
Y175109D01*
X-114123Y175187D01*
X-114100Y175250D01*
X-114069Y175312D01*
X-114038Y175359D01*
X-114006Y175398D01*
X-113975Y175429D01*
X-113952Y175445D01*
X-113944Y175453D01*
X-113881Y175484D01*
X-113811Y175515D01*
X-113717Y175546D01*
X-113631Y175570D01*
X-113546Y175593D01*
X-113475Y175609D01*
X-113428Y175625D01*
X-113413D01*
X-113272Y175656D01*
X-113147Y175687D01*
X-113046Y175710D01*
X-112960Y175734D01*
X-112897Y175757D01*
X-112850Y175765D01*
X-112819Y175781D01*
X-112811D01*
Y175578D01*
D02*
G37*
G36*
X-218711Y76595D02*
X-218667Y76590D01*
X-218623Y76580D01*
X-218589Y76566D01*
X-218559Y76551D01*
X-218540Y76541D01*
X-218525Y76536D01*
X-218520Y76531D01*
X-218486Y76507D01*
X-218462Y76478D01*
X-218418Y76419D01*
X-218408Y76390D01*
X-218398Y76370D01*
X-218389Y76356D01*
Y76351D01*
X-218384Y76327D01*
X-218374Y76292D01*
X-218369Y76258D01*
X-218364Y76214D01*
X-218359Y76121D01*
X-218354Y76024D01*
X-218350Y75931D01*
Y75892D01*
Y75853D01*
Y75824D01*
Y75799D01*
Y75785D01*
Y75780D01*
Y75307D01*
X-219164D01*
Y75804D01*
Y75873D01*
Y75936D01*
Y75995D01*
Y76043D01*
X-219160Y76087D01*
Y76126D01*
Y76156D01*
Y76185D01*
X-219155Y76229D01*
Y76253D01*
X-219150Y76268D01*
Y76273D01*
X-219135Y76327D01*
X-219121Y76375D01*
X-219101Y76414D01*
X-219077Y76449D01*
X-219057Y76478D01*
X-219038Y76497D01*
X-219028Y76507D01*
X-219023Y76512D01*
X-218984Y76541D01*
X-218940Y76561D01*
X-218896Y76580D01*
X-218857Y76590D01*
X-218823Y76595D01*
X-218794Y76600D01*
X-218764D01*
X-218711Y76595D01*
D02*
G37*
G36*
X-217769Y72247D02*
X-218959Y72681D01*
X-217769Y73130D01*
Y72247D01*
D02*
G37*
D10*
X-227000Y34835D02*
X-227046Y35835D01*
X-227182Y36827D01*
X-227408Y37802D01*
X-227722Y38753D01*
X-228121Y39672D01*
X-228601Y40550D01*
X-229160Y41381D01*
X-229792Y42158D01*
X-230492Y42874D01*
X-231254Y43523D01*
X-232072Y44101D01*
X-232939Y44601D01*
X-233848Y45021D01*
X-234792Y45356D01*
X-235762Y45605D01*
X-236751Y45763D01*
X-237750Y45832D01*
X-238751Y45809D01*
X-239745Y45695D01*
X-240726Y45492D01*
X-241684Y45199D01*
X-242611Y44822D01*
X-243500Y44361D01*
X-244343Y43821D01*
X-245134Y43207D01*
X-245866Y42524D01*
X-246533Y41777D01*
X-247129Y40972D01*
X-247649Y40116D01*
X-248089Y39217D01*
X-248446Y38281D01*
X-248716Y37317D01*
X-248898Y36332D01*
X-248989Y35335D01*
Y34334D01*
X-248898Y33337D01*
X-248716Y32352D01*
X-248446Y31388D01*
X-248089Y30452D01*
X-247649Y29553D01*
X-247129Y28697D01*
X-246533Y27893D01*
X-245866Y27145D01*
X-245134Y26462D01*
X-244343Y25848D01*
X-243500Y25308D01*
X-242611Y24848D01*
X-241684Y24470D01*
X-240726Y24178D01*
X-239745Y23974D01*
X-238751Y23860D01*
X-237750Y23837D01*
X-236751Y23906D01*
X-235762Y24065D01*
X-234792Y24313D01*
X-233848Y24648D01*
X-232939Y25068D01*
X-232072Y25569D01*
X-231254Y26146D01*
X-230492Y26795D01*
X-229792Y27512D01*
X-229160Y28288D01*
X-228601Y29119D01*
X-228121Y29998D01*
X-227722Y30916D01*
X-227408Y31867D01*
X-227182Y32842D01*
X-227046Y33834D01*
X-227000Y34835D01*
X-49835Y34835D02*
X-49880Y35835D01*
X-50017Y36827D01*
X-50243Y37802D01*
X-50556Y38753D01*
X-50955Y39672D01*
X-51436Y40550D01*
X-51995Y41381D01*
X-52627Y42158D01*
X-53327Y42874D01*
X-54089Y43523D01*
X-54907Y44101D01*
X-55774Y44601D01*
X-56683Y45021D01*
X-57626Y45356D01*
X-58597Y45605D01*
X-59585Y45763D01*
X-60584Y45832D01*
X-61585Y45809D01*
X-62580Y45695D01*
X-63560Y45492D01*
X-64518Y45199D01*
X-65446Y44822D01*
X-66335Y44361D01*
X-67178Y43821D01*
X-67969Y43207D01*
X-68701Y42524D01*
X-69367Y41777D01*
X-69963Y40972D01*
X-70484Y40116D01*
X-70924Y39217D01*
X-71281Y38281D01*
X-71551Y37317D01*
X-71732Y36332D01*
X-71823Y35335D01*
Y34334D01*
X-71732Y33337D01*
X-71551Y32352D01*
X-71281Y31388D01*
X-70924Y30452D01*
X-70484Y29553D01*
X-69963Y28697D01*
X-69367Y27893D01*
X-68701Y27145D01*
X-67969Y26462D01*
X-67178Y25848D01*
X-66335Y25308D01*
X-65446Y24848D01*
X-64518Y24470D01*
X-63560Y24178D01*
X-62580Y23974D01*
X-61585Y23860D01*
X-60584Y23837D01*
X-59585Y23906D01*
X-58597Y24065D01*
X-57627Y24313D01*
X-56683Y24648D01*
X-55774Y25068D01*
X-54907Y25569D01*
X-54089Y26146D01*
X-53327Y26795D01*
X-52627Y27512D01*
X-51995Y28288D01*
X-51436Y29119D01*
X-50955Y29998D01*
X-50556Y30916D01*
X-50243Y31867D01*
X-50017Y32842D01*
X-49880Y33834D01*
X-49835Y34835D01*
Y212000D02*
X-49880Y213000D01*
X-50017Y213992D01*
X-50243Y214968D01*
X-50556Y215919D01*
X-50955Y216837D01*
X-51436Y217715D01*
X-51995Y218546D01*
X-52627Y219323D01*
X-53327Y220039D01*
X-54089Y220689D01*
X-54907Y221266D01*
X-55774Y221767D01*
X-56683Y222186D01*
X-57626Y222522D01*
X-58597Y222770D01*
X-59585Y222929D01*
X-60584Y222997D01*
X-61585Y222974D01*
X-62580Y222861D01*
X-63560Y222657D01*
X-64518Y222365D01*
X-65446Y221987D01*
X-66335Y221526D01*
X-67178Y220987D01*
X-67969Y220373D01*
X-68701Y219689D01*
X-69367Y218942D01*
X-69963Y218137D01*
X-70484Y217282D01*
X-70924Y216382D01*
X-71281Y215447D01*
X-71551Y214483D01*
X-71732Y213498D01*
X-71823Y212501D01*
Y211499D01*
X-71732Y210502D01*
X-71551Y209517D01*
X-71281Y208553D01*
X-70924Y207618D01*
X-70484Y206718D01*
X-69963Y205863D01*
X-69367Y205058D01*
X-68701Y204311D01*
X-67969Y203627D01*
X-67178Y203013D01*
X-66335Y202474D01*
X-65446Y202013D01*
X-64518Y201635D01*
X-63560Y201343D01*
X-62580Y201139D01*
X-61585Y201026D01*
X-60584Y201003D01*
X-59585Y201071D01*
X-58597Y201230D01*
X-57627Y201478D01*
X-56683Y201814D01*
X-55774Y202233D01*
X-54907Y202734D01*
X-54089Y203311D01*
X-53327Y203961D01*
X-52627Y204677D01*
X-51995Y205454D01*
X-51436Y206284D01*
X-50955Y207163D01*
X-50556Y208081D01*
X-50243Y209032D01*
X-50017Y210008D01*
X-49880Y211000D01*
X-49835Y212000D01*
X-227000Y212000D02*
X-227046Y213000D01*
X-227182Y213992D01*
X-227408Y214968D01*
X-227722Y215919D01*
X-228121Y216837D01*
X-228601Y217715D01*
X-229160Y218546D01*
X-229792Y219323D01*
X-230492Y220039D01*
X-231254Y220689D01*
X-232072Y221266D01*
X-232939Y221767D01*
X-233848Y222186D01*
X-234792Y222522D01*
X-235762Y222770D01*
X-236751Y222929D01*
X-237750Y222997D01*
X-238751Y222974D01*
X-239745Y222861D01*
X-240726Y222657D01*
X-241684Y222365D01*
X-242611Y221987D01*
X-243500Y221526D01*
X-244343Y220987D01*
X-245134Y220373D01*
X-245866Y219689D01*
X-246533Y218942D01*
X-247129Y218137D01*
X-247649Y217282D01*
X-248089Y216382D01*
X-248446Y215447D01*
X-248716Y214483D01*
X-248898Y213498D01*
X-248989Y212501D01*
Y211499D01*
X-248898Y210502D01*
X-248716Y209517D01*
X-248446Y208553D01*
X-248089Y207618D01*
X-247649Y206718D01*
X-247129Y205863D01*
X-246533Y205058D01*
X-245866Y204311D01*
X-245134Y203627D01*
X-244343Y203013D01*
X-243500Y202474D01*
X-242611Y202013D01*
X-241684Y201635D01*
X-240726Y201343D01*
X-239745Y201139D01*
X-238751Y201026D01*
X-237750Y201003D01*
X-236751Y201071D01*
X-235762Y201230D01*
X-234792Y201478D01*
X-233848Y201814D01*
X-232939Y202233D01*
X-232072Y202734D01*
X-231254Y203311D01*
X-230492Y203961D01*
X-229792Y204677D01*
X-229160Y205454D01*
X-228601Y206284D01*
X-228121Y207163D01*
X-227722Y208081D01*
X-227408Y209032D01*
X-227182Y210008D01*
X-227046Y211000D01*
X-227000Y212000D01*
X-175400Y32937D02*
X-176150Y33370D01*
Y32504D01*
X-175400Y32937D01*
X-111538Y130945D02*
X-112038Y131811D01*
X-113038D01*
X-113538Y130945D01*
X-113038Y130079D01*
X-112038D01*
X-111538Y130945D01*
X-182126Y30579D02*
X-182876Y31012D01*
Y30146D01*
X-182126Y30579D01*
X-50000Y-8000D02*
Y8008D01*
X-249000Y-8000D02*
Y8008D01*
X-136004Y-7000D02*
X-50000D01*
X-249000D02*
X-166196D01*
X-56000Y-5000D02*
X-50000Y-7000D01*
X-56000Y-9000D02*
X-50000Y-7000D01*
X-249000D02*
X-243000Y-9000D01*
X-249000Y-7000D02*
X-243000Y-5000D01*
X-48508Y271500D02*
X-29300D01*
X-48508Y9500D02*
X-29300D01*
X-30300Y153996D02*
Y271500D01*
Y9500D02*
Y123804D01*
X-32300Y265500D02*
X-30300Y271500D01*
X-28300Y265500D01*
X-30300Y9500D02*
X-28300Y15500D01*
X-32300D02*
X-30300Y9500D01*
X-109084Y128883D02*
X-109047Y133022D01*
X-145293Y92675D02*
X-109084Y128883D01*
X-146707Y92675D02*
X-145293Y92675D01*
X-184307Y130275D02*
X-146707Y92675D01*
X-184307Y130275D02*
X-184296Y131678D01*
X-146696Y169279D01*
X-145304Y169278D01*
X-109047Y133022D01*
D11*
X-134700Y18500D02*
X-134300D01*
X-146200D02*
X-145800D01*
X-151700D02*
X-151300D01*
X-159200D02*
X-158800D01*
X-196700D02*
X-196300D01*
X-191200D02*
X-190800D01*
X-154000Y71800D02*
Y72200D01*
Y76800D02*
Y77200D01*
X-193141Y151859D02*
X-192859Y152141D01*
X-160741Y86858D02*
X-160459Y87141D01*
X-59300Y188300D02*
X-58900D01*
X-219800Y125269D02*
X-219400D01*
X-94098Y124631D02*
Y125031D01*
X-190200Y95000D02*
X-189800D01*
X-197142Y147859D02*
X-196859Y148142D01*
X-163142Y173141D02*
X-162859Y172859D01*
X-94000Y129800D02*
Y130200D01*
X-110141Y153858D02*
X-109859Y154141D01*
X-78200Y151000D02*
X-77800D01*
X-84200D02*
X-83800D01*
X-121200Y205600D02*
X-120800D01*
X-90200Y204400D02*
X-89800D01*
X-90200Y214400D02*
X-89800D01*
X-198200Y204000D02*
X-197800D01*
X-229200Y151874D02*
X-228800D01*
X-214200Y138000D02*
X-213800D01*
X-224800Y125269D02*
X-224400D01*
X-217200Y151800D02*
X-216800D01*
X-176200Y18500D02*
X-175800D01*
X-170533D02*
X-170133D01*
X-164867D02*
X-164467D01*
X-140200D02*
X-139800D01*
X-185700D02*
X-185300D01*
X-202200D02*
X-201800D01*
X-219900Y199100D02*
Y199500D01*
X-216277Y215300D02*
X-215877D01*
X-210200D02*
X-209800D01*
X-219900Y204100D02*
Y204500D01*
X-70200Y91969D02*
X-69800D01*
D13*
X-102474Y160055D02*
X-103074Y160401D01*
Y159709D01*
X-102474Y160055D01*
X-232500Y158252D02*
Y160220D01*
X-238400Y158252D02*
X-232500D01*
Y187800D02*
Y189800D01*
X-238400D02*
X-232500D01*
D90*
X-145550Y40790D02*
X-146150Y41390D01*
X-146750Y40790D01*
X-146150Y40190D01*
X-145550Y40790D01*
X-146150Y40790D02*
X-142600D01*
X-143394Y41184D02*
X-142600Y40790D01*
X-143394Y40396D02*
Y41184D01*
Y40396D02*
X-142600Y40790D01*
X-146150Y37246D02*
Y40790D01*
X-146543Y38034D02*
X-146150Y37246D01*
X-146543Y38034D02*
X-145756D01*
X-146150Y37246D02*
X-145756Y38034D01*
X-53919Y187709D02*
X-53525Y188103D01*
X-56300Y187709D02*
X-53919D01*
X-56700Y187316D02*
X-56300Y187709D01*
X-200319Y59171D02*
X-199925Y59565D01*
X-202700Y59171D02*
X-200319D01*
X-203100Y58777D02*
X-202700Y59171D01*
X-204319D02*
X-203925Y59565D01*
X-206700Y59171D02*
X-204319D01*
X-207100Y58777D02*
X-206700Y59171D01*
X-84419Y214909D02*
X-84025Y215303D01*
X-86800Y214909D02*
X-84419D01*
X-87200Y214516D02*
X-86800Y214909D01*
X-120319Y215509D02*
X-119925Y215903D01*
X-122700Y215509D02*
X-120319D01*
X-123100Y215116D02*
X-122700Y215509D01*
X-116819Y215409D02*
X-116425Y215803D01*
X-119200Y215409D02*
X-116819D01*
X-119600Y215016D02*
X-119200Y215409D01*
D91*
X-121369Y90727D02*
X-121968Y91327D01*
X-122569Y90727D01*
X-121968Y90127D01*
X-121369Y90727D01*
X-190550Y64512D02*
X-191150Y65112D01*
X-191750Y64512D01*
X-191150Y63912D01*
X-190550Y64512D01*
X-220387Y173575D02*
X-220987Y173921D01*
Y173228D01*
X-220387Y173575D01*
X-123204Y217777D02*
X-123757Y218538D01*
X-124651Y218247D01*
Y217307D01*
X-123757Y217016D01*
X-123204Y217777D01*
X-155550Y206512D02*
X-156150Y207112D01*
X-156750Y206512D01*
X-156150Y205912D01*
X-155550Y206512D01*
X-92200Y10400D02*
Y11700D01*
Y12700D02*
Y14000D01*
Y15000D02*
Y16300D01*
Y17300D02*
Y18600D01*
Y19600D02*
Y20900D01*
Y21900D02*
Y23200D01*
Y24200D02*
Y25500D01*
X-153000Y14000D02*
X-144800D01*
X-177700Y13600D02*
X-168700D01*
X-206200Y63500D02*
X-200600D01*
X-220200Y49100D02*
Y62300D01*
X-240700Y144400D02*
X-232700D01*
X-70480Y25820D02*
X-69100Y27200D01*
X-130300Y10000D02*
Y24000D01*
X-128480Y25820D01*
X-70480D01*
X-84300Y46900D02*
X-75000D01*
X-127600Y28000D02*
Y67100D01*
X-126400Y68300D01*
X-124700D01*
X-109000Y63500D02*
X-108400D01*
X-110450Y62050D02*
X-109000Y63500D01*
X-110450Y31600D02*
Y62050D01*
X-55700Y188600D02*
X-55100Y188000D01*
X-54500Y188600D01*
X-55100D02*
X-54500D01*
X-55700D02*
X-55100D01*
Y188000D02*
Y188600D01*
X-225362Y149856D02*
Y152237D01*
X-220600Y149856D02*
Y152237D01*
X-122756Y89153D02*
X-114819D01*
X-122756Y81216D02*
X-114819D01*
X-191937Y62937D02*
X-184000D01*
X-191937Y55000D02*
X-184000D01*
X-228937Y135063D02*
X-221000D01*
X-226969Y143000D02*
X-221000D01*
X-215962Y124869D02*
Y127250D01*
X-211200Y124869D02*
Y127250D01*
X-208638Y149819D02*
Y152200D01*
X-213400Y149819D02*
Y152200D01*
X-219638Y213319D02*
Y215700D01*
X-224400Y213319D02*
Y215700D01*
X-202100Y60061D02*
X-201500Y59461D01*
X-200900Y60061D01*
X-201500D02*
X-200900D01*
X-202100D02*
X-201500D01*
Y59461D02*
Y60061D01*
X-206100D02*
X-205500Y59461D01*
X-204900Y60061D01*
X-205500D02*
X-204900D01*
X-206100D02*
X-205500D01*
Y59461D02*
Y60061D01*
X-222362Y168800D02*
X-217600D01*
X-222362Y175150D02*
X-217600D01*
X-86200Y215800D02*
X-85600Y215200D01*
X-85000Y215800D01*
X-85600D02*
X-85000D01*
X-86200D02*
X-85600D01*
Y215200D02*
Y215800D01*
X-92498Y31700D02*
Y34700D01*
Y44700D02*
Y47700D01*
Y57700D02*
Y60700D01*
X-137824Y71700D02*
Y76259D01*
X-140200Y71700D02*
X-137824D01*
X-140200D02*
Y76259D01*
X-137824D01*
X-214299Y92902D02*
Y107100D01*
X-195700Y92902D02*
Y107100D01*
X-122100Y216400D02*
X-121500Y215800D01*
X-120900Y216400D01*
X-121500D02*
X-120900D01*
X-122100D02*
X-121500D01*
Y215800D02*
Y216400D01*
X-118600Y216300D02*
X-118000Y215700D01*
X-117400Y216300D01*
X-118000D02*
X-117400D01*
X-118600D02*
X-118000D01*
Y215700D02*
Y216300D01*
X-119800Y235450D02*
X-85300D01*
X-75800Y235600D02*
X-66400D01*
X-195638Y213319D02*
Y215700D01*
X-200400Y213319D02*
Y215700D01*
X-169500Y219400D02*
X-155500D01*
X-124791Y206100D02*
Y214037D01*
X-136300Y206100D02*
Y214037D01*
X-156937Y204937D02*
X-149000D01*
X-156937Y197000D02*
X-149000D01*
X-211000Y205937D02*
X-203063D01*
X-211000Y198000D02*
X-205032D01*
X-122500Y219500D02*
X-117000D01*
X-89200Y189600D02*
X-86200D01*
X-82200Y187800D02*
X-79200D01*
X-74600Y197700D02*
Y206500D01*
X-76600Y196000D02*
X-67600D01*
X-95787Y151394D02*
X-95000Y152181D01*
X-100906Y159268D02*
X-89000D01*
X-102087Y158087D02*
X-100906Y159268D01*
X-102087Y143900D02*
Y158087D01*
Y143900D02*
X-100906Y142700D01*
X-89000D01*
X-87900Y143900D01*
Y158087D01*
X-89000Y159268D02*
X-87900Y158087D01*
X-85500Y155700D02*
X-76800D01*
X-160597Y-4601D02*
X-164596D01*
Y-7600D01*
X-162596Y-6600D01*
X-161597D01*
X-160597Y-7600D01*
Y-9599D01*
X-161597Y-10599D01*
X-163596D01*
X-164596Y-9599D01*
X-158598Y-5601D02*
X-157598Y-4601D01*
X-155599D01*
X-154599Y-5601D01*
Y-9599D01*
X-155599Y-10599D01*
X-157598D01*
X-158598Y-9599D01*
Y-5601D01*
X-152600Y-10599D02*
Y-9599D01*
X-151600D01*
Y-10599D01*
X-152600D01*
X-143602Y-4601D02*
X-147601D01*
Y-7600D01*
X-145602Y-6600D01*
X-144602D01*
X-143602Y-7600D01*
Y-9599D01*
X-144602Y-10599D01*
X-146601D01*
X-147601Y-9599D01*
X-137604Y-4601D02*
X-141603D01*
Y-7600D01*
X-139604Y-6600D01*
X-138604D01*
X-137604Y-7600D01*
Y-9599D01*
X-138604Y-10599D01*
X-140603D01*
X-141603Y-9599D01*
X-32699Y129403D02*
X-31699Y127404D01*
X-29700Y125404D01*
X-27701D01*
X-26701Y126404D01*
Y128403D01*
X-27701Y129403D01*
X-28700D01*
X-29700Y128403D01*
Y125404D01*
X-32699Y135401D02*
X-31699Y133402D01*
X-29700Y131402D01*
X-27701D01*
X-26701Y132402D01*
Y134401D01*
X-27701Y135401D01*
X-28700D01*
X-29700Y134401D01*
Y131402D01*
X-26701Y137400D02*
X-27701D01*
Y138400D01*
X-26701D01*
Y137400D01*
X-32699Y146398D02*
Y142399D01*
X-29700D01*
X-30700Y144398D01*
Y145398D01*
X-29700Y146398D01*
X-27701D01*
X-26701Y145398D01*
Y143398D01*
X-27701Y142399D01*
X-32699Y152396D02*
Y148397D01*
X-29700D01*
X-30700Y150396D01*
Y151396D01*
X-29700Y152396D01*
X-27701D01*
X-26701Y151396D01*
Y149397D01*
X-27701Y148397D01*
X-85434Y11100D02*
X-87100D01*
X-85434Y12766D01*
Y13183D01*
X-85850Y13599D01*
X-86683D01*
X-87100Y13183D01*
X-84601D02*
X-84184Y13599D01*
X-83351D01*
X-82935Y13183D01*
Y11517D01*
X-83351Y11100D01*
X-84184D01*
X-84601Y11517D01*
Y13183D01*
X-82102Y11100D02*
X-81269D01*
X-81685D01*
Y13599D01*
X-82102Y13183D01*
X-80019Y13599D02*
X-78353D01*
Y13183D01*
X-80019Y11517D01*
Y11100D01*
X-77520D02*
X-75854Y12766D01*
X-75021Y13183D02*
X-74604Y13599D01*
X-73771D01*
X-73354Y13183D01*
Y11517D01*
X-73771Y11100D01*
X-74604D01*
X-75021Y11517D01*
Y13183D01*
X-72521Y13599D02*
X-70855D01*
Y13183D01*
X-72521Y11517D01*
Y11100D01*
X-70022D02*
X-68356Y12766D01*
X-65857Y11100D02*
X-67523D01*
X-65857Y12766D01*
Y13183D01*
X-66273Y13599D01*
X-67106D01*
X-67523Y13183D01*
X-65024D02*
X-64607Y13599D01*
X-63774D01*
X-63358Y13183D01*
Y11517D01*
X-63774Y11100D01*
X-64607D01*
X-65024Y11517D01*
Y13183D01*
X-85650Y17033D02*
Y17450D01*
X-86067D01*
Y17033D01*
X-85650D01*
X-85234Y17450D01*
Y18283D01*
X-85650Y18699D01*
X-86484D01*
X-86900Y18283D01*
Y16616D01*
X-86484Y16200D01*
X-85234D01*
X-81902Y18699D02*
Y16200D01*
Y17450D01*
X-80235D01*
Y18699D01*
Y16200D01*
X-79402Y18699D02*
X-78569D01*
X-78986D01*
Y16200D01*
X-79402D01*
X-78569D01*
X-77320Y18699D02*
X-75654D01*
X-76487D01*
Y16200D01*
X-74404Y15784D02*
X-73988Y16200D01*
Y16616D01*
X-74404D01*
Y16200D01*
X-73988D01*
X-74404Y15784D01*
X-74821Y15367D01*
X-69822Y16200D02*
Y17866D01*
X-68989Y18699D01*
X-68156Y17866D01*
Y16200D01*
Y17450D01*
X-69822D01*
X-67323Y16200D02*
Y17866D01*
X-66073D01*
X-65657Y17450D01*
Y16200D01*
X-64824D02*
X-63574D01*
X-63158Y16616D01*
X-63574Y17033D01*
X-64407D01*
X-64824Y17450D01*
X-64407Y17866D01*
X-63158D01*
X-62325Y18699D02*
Y16200D01*
Y17450D01*
X-61908Y17866D01*
X-61075D01*
X-60659Y17450D01*
Y16200D01*
X-59409Y17866D02*
X-58576D01*
X-58159Y17450D01*
Y16200D01*
X-59409D01*
X-59825Y16616D01*
X-59409Y17033D01*
X-58159D01*
X-57326Y16200D02*
Y17866D01*
X-56077D01*
X-55660Y17450D01*
Y16200D01*
X-85134Y20917D02*
Y22583D01*
X-85550Y22999D01*
X-86383D01*
X-86800Y22583D01*
Y20917D01*
X-86383Y20500D01*
X-85550D01*
X-85967Y21333D02*
X-85134Y20500D01*
X-85550D02*
X-85134Y20917D01*
X-84301Y22999D02*
X-83468D01*
X-83884D01*
Y20500D01*
X-84301D01*
X-83468D01*
X-82218Y22999D02*
Y22583D01*
X-81385Y21750D01*
X-80552Y22583D01*
Y22999D01*
X-81385Y21750D02*
Y20500D01*
X-79719Y22999D02*
Y20917D01*
X-79302Y20500D01*
X-78469D01*
X-78053Y20917D01*
Y22999D01*
X-75554D02*
X-77220D01*
Y20500D01*
X-75554D01*
X-77220Y21750D02*
X-76387D01*
X-74721Y22999D02*
X-73054Y20500D01*
Y22999D02*
X-74721Y20500D01*
X-72221Y22999D02*
X-71388D01*
X-71805D01*
Y20500D01*
X-72221D01*
X-71388D01*
X-70139D02*
Y22999D01*
X-68473Y20500D01*
Y22999D01*
X-240367Y194999D02*
X-241034D01*
X-240700D01*
Y193333D01*
X-241034Y193000D01*
X-241367D01*
X-241700Y193333D01*
X-238368Y194999D02*
X-239701D01*
Y194000D01*
X-239034Y194333D01*
X-238701D01*
X-238368Y194000D01*
Y193333D01*
X-238701Y193000D01*
X-239367D01*
X-239701Y193333D01*
X-237701Y194666D02*
X-237368Y194999D01*
X-236702D01*
X-236368Y194666D01*
Y193333D01*
X-236702Y193000D01*
X-237368D01*
X-237701Y193333D01*
Y194666D01*
X-235702Y193333D02*
X-235369Y193000D01*
X-234702D01*
X-234369Y193333D01*
Y194666D01*
X-234702Y194999D01*
X-235369D01*
X-235702Y194666D01*
Y194333D01*
X-235369Y194000D01*
X-234369D01*
X-136600Y11200D02*
X-135933D01*
X-136267D01*
Y13199D01*
X-136600Y12866D01*
X-134934D02*
X-134601Y13199D01*
X-133934D01*
X-133601Y12866D01*
Y11533D01*
X-133934Y11200D01*
X-134601D01*
X-134934Y11533D01*
Y12866D01*
X-132934Y11200D02*
Y12533D01*
X-131935D01*
X-131602Y12200D01*
Y11200D01*
X-162300Y12266D02*
X-161967Y12599D01*
X-161300D01*
X-160967Y12266D01*
Y10933D01*
X-161300Y10600D01*
X-161967D01*
X-162300Y10933D01*
Y12266D01*
X-160301Y11933D02*
Y10933D01*
X-159967Y10600D01*
X-158968D01*
Y11933D01*
X-157302Y10600D02*
Y12599D01*
X-158301Y11600D01*
X-156968D01*
X-156302Y12599D02*
X-154969D01*
Y12266D01*
X-156302Y10933D01*
Y10600D01*
X-199300Y11500D02*
X-198634D01*
X-198967D01*
Y13499D01*
X-199300Y13166D01*
X-197634D02*
X-197301Y13499D01*
X-196634D01*
X-196301Y13166D01*
Y11833D01*
X-196634Y11500D01*
X-197301D01*
X-197634Y11833D01*
Y13166D01*
X-195634Y11500D02*
Y12833D01*
X-194635D01*
X-194302Y12500D01*
Y11500D01*
X-192800Y11300D02*
X-192133D01*
X-192467D01*
Y13299D01*
X-192800Y12966D01*
X-191134D02*
X-190801Y13299D01*
X-190134D01*
X-189801Y12966D01*
Y11633D01*
X-190134Y11300D01*
X-190801D01*
X-191134Y11633D01*
Y12966D01*
X-189135Y12633D02*
Y11633D01*
X-188801Y11300D01*
X-187802D01*
Y12633D01*
X-213900Y20199D02*
Y18533D01*
X-213567Y18200D01*
X-212900D01*
X-212567Y18533D01*
Y20199D01*
X-211901Y19866D02*
X-211567Y20199D01*
X-210901D01*
X-210568Y19866D01*
Y19533D01*
X-210901Y19200D01*
X-211234D01*
X-210901D01*
X-210568Y18867D01*
Y18533D01*
X-210901Y18200D01*
X-211567D01*
X-211901Y18533D01*
X-209901Y19866D02*
X-209568Y20199D01*
X-208902D01*
X-208568Y19866D01*
Y18533D01*
X-208902Y18200D01*
X-209568D01*
X-209901Y18533D01*
Y19866D01*
X-207902D02*
X-207569Y20199D01*
X-206902D01*
X-206569Y19866D01*
Y18533D01*
X-206902Y18200D01*
X-207569D01*
X-207902Y18533D01*
Y19866D01*
X-169850Y72736D02*
X-169467Y73119D01*
X-168701D01*
X-168318Y72736D01*
Y71203D01*
X-168701Y70820D01*
X-169467D01*
X-169850Y71203D01*
Y72736D01*
X-167551Y72352D02*
Y71203D01*
X-167168Y70820D01*
X-166018D01*
Y72352D01*
X-164102Y70820D02*
Y73119D01*
X-165252Y71969D01*
X-163719D01*
X-162953Y73119D02*
X-161420D01*
Y72736D01*
X-162953Y71203D01*
Y70820D01*
X-164850Y75820D02*
X-164084D01*
X-164467D01*
Y78119D01*
X-164850Y77736D01*
X-162934Y77352D02*
Y76203D01*
X-162551Y75820D01*
X-161401D01*
Y77352D01*
X-140800Y49999D02*
Y48333D01*
X-140467Y48000D01*
X-139800D01*
X-139467Y48333D01*
Y49999D01*
X-138801Y49666D02*
X-138467Y49999D01*
X-137801D01*
X-137468Y49666D01*
Y49333D01*
X-137801Y49000D01*
X-138134D01*
X-137801D01*
X-137468Y48666D01*
Y48333D01*
X-137801Y48000D01*
X-138467D01*
X-138801Y48333D01*
X-136801Y49666D02*
X-136468Y49999D01*
X-135802D01*
X-135468Y49666D01*
Y48333D01*
X-135802Y48000D01*
X-136468D01*
X-136801Y48333D01*
Y49666D01*
X-133469Y48000D02*
X-134802D01*
X-133469Y49333D01*
Y49666D01*
X-133802Y49999D01*
X-134469D01*
X-134802Y49666D01*
X-148543Y35253D02*
X-146543Y36586D01*
X-148543D02*
X-146543Y35253D01*
X-142599Y40790D02*
X-142266D01*
X-141600Y41456D01*
X-142266Y42123D01*
X-142599D01*
X-141600Y41456D02*
X-140600D01*
X-149330Y41184D02*
Y42516D01*
X-148997D01*
X-147664Y41184D01*
X-147331D01*
Y42516D01*
X-175250Y59053D02*
X-174917Y58720D01*
X-174251D01*
X-173917Y59053D01*
Y60386D01*
X-174251Y60719D01*
X-174917D01*
X-175250Y60386D01*
Y60053D01*
X-174917Y59719D01*
X-173917D01*
X-173251Y60719D02*
Y58720D01*
Y59386D01*
X-171918Y60719D01*
X-172918Y59719D01*
X-171918Y58720D01*
X-171252Y60386D02*
X-170919Y60719D01*
X-170252D01*
X-169919Y60386D01*
Y59053D01*
X-170252Y58720D01*
X-170919D01*
X-171252Y59053D01*
Y60386D01*
X-169252Y59053D02*
X-168919Y58720D01*
X-168253D01*
X-167919Y59053D01*
Y60386D01*
X-168253Y60719D01*
X-168919D01*
X-169252Y60386D01*
Y60053D01*
X-168919Y59719D01*
X-167919D01*
X-174300Y64000D02*
Y65999D01*
X-175300Y65000D01*
X-173967D01*
X-171968Y65999D02*
X-173301D01*
Y65000D01*
X-172634Y65333D01*
X-172301D01*
X-171968Y65000D01*
Y64333D01*
X-172301Y64000D01*
X-172967D01*
X-173301Y64333D01*
X-171301Y65666D02*
X-170968Y65999D01*
X-170302D01*
X-169968Y65666D01*
Y65333D01*
X-170302Y65000D01*
X-170635D01*
X-170302D01*
X-169968Y64666D01*
Y64333D01*
X-170302Y64000D01*
X-170968D01*
X-171301Y64333D01*
X-169302Y65999D02*
Y64000D01*
Y64666D01*
X-167969Y65999D01*
X-168969Y65000D01*
X-167969Y64000D01*
X-173100Y53500D02*
X-172433D01*
X-172767D01*
Y55499D01*
X-173100Y55166D01*
X-171434D02*
X-171101Y55499D01*
X-170434D01*
X-170101Y55166D01*
Y53833D01*
X-170434Y53500D01*
X-171101D01*
X-171434Y53833D01*
Y55166D01*
X-169434Y55499D02*
Y53500D01*
Y54166D01*
X-168102Y55499D01*
X-169101Y54500D01*
X-168102Y53500D01*
X-231800Y115300D02*
X-231134D01*
X-231467D01*
Y117299D01*
X-231800Y116966D01*
X-230134D02*
X-229801Y117299D01*
X-229134D01*
X-228801Y116966D01*
Y115633D01*
X-229134Y115300D01*
X-229801D01*
X-230134Y115633D01*
Y116966D01*
X-228134Y115300D02*
Y117299D01*
X-227135D01*
X-226802Y116966D01*
Y116300D01*
X-227135Y115966D01*
X-228134D01*
X-227468D02*
X-226802Y115300D01*
X-244500Y138800D02*
Y139467D01*
Y139133D01*
X-246499D01*
X-246166Y138800D01*
X-244500Y140466D02*
X-246499D01*
X-245166D02*
X-245833Y141466D01*
X-245166Y140466D02*
X-244500Y141466D01*
X-246166Y142465D02*
X-246499Y142799D01*
Y143465D01*
X-246166Y143798D01*
X-245833D01*
X-245500Y143465D01*
X-245166Y143798D01*
X-244833D01*
X-244500Y143465D01*
Y142799D01*
X-244833Y142465D01*
X-245166D01*
X-245500Y142799D01*
X-245833Y142465D01*
X-246166D01*
X-245500Y142799D02*
Y143465D01*
X-188443Y154943D02*
X-187500Y154000D01*
X-189385D01*
X-189621Y153764D01*
Y153293D01*
X-189149Y152822D01*
X-188678Y152822D01*
X-189856Y154471D02*
X-189149Y155178D01*
Y155649D01*
X-189856Y156356D01*
X-190799Y155414D01*
X-191270Y157770D02*
X-190328Y156827D01*
X-192212D01*
X-192448Y156592D01*
Y156121D01*
X-191977Y155649D01*
X-191506D01*
X-162042Y83342D02*
X-161100Y82400D01*
X-162985D01*
X-163221Y82164D01*
Y81693D01*
X-162749Y81222D01*
X-162278Y81222D01*
X-163456Y82871D02*
X-162749Y83578D01*
Y84049D01*
X-163456Y84756D01*
X-164399Y83814D01*
X-164870Y86170D02*
X-163927Y85228D01*
X-165813D01*
X-166048Y84992D01*
Y84521D01*
X-165577Y84049D01*
X-165106D01*
X-185900Y96316D02*
X-185517Y96699D01*
X-184750D01*
X-184367Y96316D01*
Y94783D01*
X-184750Y94400D01*
X-185517D01*
X-185900Y94783D01*
Y96316D01*
X-183601Y94400D02*
Y96699D01*
X-182451D01*
X-182068Y96316D01*
Y95550D01*
X-182451Y95166D01*
X-183601D01*
X-182834D02*
X-182068Y94400D01*
X-221300Y117400D02*
X-220634D01*
X-220967D01*
Y119399D01*
X-221300Y119066D01*
X-219634Y118733D02*
Y117733D01*
X-219301Y117400D01*
X-218301D01*
Y118733D01*
X-145000Y219814D02*
X-144334D01*
X-144667D01*
Y221814D01*
X-145000Y221480D01*
X-143334D02*
X-143001Y221814D01*
X-142334D01*
X-142001Y221480D01*
Y220147D01*
X-142334Y219814D01*
X-143001D01*
X-143334Y220147D01*
Y221480D01*
X-141334D02*
X-141001Y221814D01*
X-140335D01*
X-140002Y221480D01*
Y220147D01*
X-140335Y219814D01*
X-141001D01*
X-141334Y220147D01*
Y221480D01*
X-139335Y221147D02*
Y220147D01*
X-139002Y219814D01*
X-138002D01*
Y221147D01*
X-104500Y91000D02*
X-103833D01*
X-104167D01*
Y92999D01*
X-104500Y92666D01*
X-102834D02*
X-102501Y92999D01*
X-101834D01*
X-101501Y92666D01*
Y91333D01*
X-101834Y91000D01*
X-102501D01*
X-102834Y91333D01*
Y92666D01*
X-100835D02*
X-100501Y92999D01*
X-99835D01*
X-99502Y92666D01*
Y91333D01*
X-99835Y91000D01*
X-100501D01*
X-100835Y91333D01*
Y92666D01*
X-98835Y92333D02*
Y91333D01*
X-98502Y91000D01*
X-97502D01*
Y92333D01*
X-71167Y99699D02*
X-72500D01*
Y98700D01*
X-71834Y99033D01*
X-71500D01*
X-71167Y98700D01*
Y98033D01*
X-71500Y97700D01*
X-72167D01*
X-72500Y98033D01*
X-70501Y97700D02*
Y99033D01*
X-69501D01*
X-69168Y98700D01*
Y97700D01*
X-67168Y99699D02*
X-67835Y99366D01*
X-68501Y98700D01*
Y98033D01*
X-68168Y97700D01*
X-67502D01*
X-67168Y98033D01*
Y98366D01*
X-67502Y98700D01*
X-68501D01*
X-180750Y72519D02*
Y70520D01*
X-179751D01*
X-179418Y70853D01*
Y72186D01*
X-179751Y72519D01*
X-180750D01*
X-177418Y70520D02*
X-178751D01*
X-177418Y71853D01*
Y72186D01*
X-177751Y72519D01*
X-178418D01*
X-178751Y72186D01*
X-176752D02*
X-176418Y72519D01*
X-175752D01*
X-175419Y72186D01*
Y70853D01*
X-175752Y70520D01*
X-176418D01*
X-176752Y70853D01*
Y72186D01*
X-174752D02*
X-174419Y72519D01*
X-173753D01*
X-173419Y72186D01*
Y70853D01*
X-173753Y70520D01*
X-174419D01*
X-174752Y70853D01*
Y72186D01*
X-191167Y89499D02*
X-192500D01*
Y88500D01*
X-191833D01*
X-192500D01*
Y87500D01*
X-189168D02*
X-190501D01*
X-189168Y88833D01*
Y89166D01*
X-189501Y89499D01*
X-190167D01*
X-190501Y89166D01*
X-188501D02*
X-188168Y89499D01*
X-187502D01*
X-187168Y89166D01*
Y87833D01*
X-187502Y87500D01*
X-188168D01*
X-188501Y87833D01*
Y89166D01*
X-186502D02*
X-186169Y89499D01*
X-185502D01*
X-185169Y89166D01*
Y87833D01*
X-185502Y87500D01*
X-186169D01*
X-186502Y87833D01*
Y89166D01*
X-239667Y108999D02*
X-240334D01*
X-240000D01*
Y107333D01*
X-240334Y107000D01*
X-240667D01*
X-241000Y107333D01*
X-237668Y108999D02*
X-239001D01*
Y108000D01*
X-238334Y108333D01*
X-238001D01*
X-237668Y108000D01*
Y107333D01*
X-238001Y107000D01*
X-238667D01*
X-239001Y107333D01*
X-237001Y108666D02*
X-236668Y108999D01*
X-236002D01*
X-235668Y108666D01*
Y107333D01*
X-236002Y107000D01*
X-236668D01*
X-237001Y107333D01*
Y108666D01*
X-235002D02*
X-234669Y108999D01*
X-234002D01*
X-233669Y108666D01*
Y108333D01*
X-234002Y108000D01*
X-233669Y107667D01*
Y107333D01*
X-234002Y107000D01*
X-234669D01*
X-235002Y107333D01*
Y107667D01*
X-234669Y108000D01*
X-235002Y108333D01*
Y108666D01*
X-234669Y108000D02*
X-234002D01*
X-143500Y80999D02*
Y79000D01*
X-142167D01*
X-140501D02*
Y80999D01*
X-141501Y80000D01*
X-140168D01*
X-139501Y80666D02*
X-139168Y80999D01*
X-138502D01*
X-138168Y80666D01*
Y79333D01*
X-138502Y79000D01*
X-139168D01*
X-139501Y79333D01*
Y80666D01*
X-137502D02*
X-137169Y80999D01*
X-136502D01*
X-136169Y80666D01*
Y79333D01*
X-136502Y79000D01*
X-137169D01*
X-137502Y79333D01*
Y80666D01*
X-242067Y117633D02*
Y118966D01*
X-242400Y119299D01*
X-243067D01*
X-243400Y118966D01*
Y117633D01*
X-243067Y117300D01*
X-242400D01*
X-242734Y117966D02*
X-242067Y117300D01*
X-242400D02*
X-242067Y117633D01*
X-240068Y117300D02*
X-241401D01*
X-240068Y118633D01*
Y118966D01*
X-240401Y119299D01*
X-241067D01*
X-241401Y118966D01*
X-239401D02*
X-239068Y119299D01*
X-238402D01*
X-238068Y118966D01*
Y117633D01*
X-238402Y117300D01*
X-239068D01*
X-239401Y117633D01*
Y118966D01*
X-237402D02*
X-237069Y119299D01*
X-236402D01*
X-236069Y118966D01*
Y117633D01*
X-236402Y117300D01*
X-237069D01*
X-237402Y117633D01*
Y118966D01*
X-121400Y70900D02*
X-120733D01*
X-121067D01*
Y72899D01*
X-121400Y72566D01*
X-119734D02*
X-119401Y72899D01*
X-118734D01*
X-118401Y72566D01*
Y71233D01*
X-118734Y70900D01*
X-119401D01*
X-119734Y71233D01*
Y72566D01*
X-117735Y72899D02*
Y70900D01*
Y71566D01*
X-116402Y72899D01*
X-117401Y71900D01*
X-116402Y70900D01*
X-107900Y87500D02*
Y88166D01*
Y87833D01*
X-109899D01*
X-109566Y87500D01*
X-109899Y90499D02*
X-109566Y89833D01*
X-108900Y89166D01*
X-108233D01*
X-107900Y89499D01*
Y90166D01*
X-108233Y90499D01*
X-108566D01*
X-108900Y90166D01*
Y89166D01*
X-109899Y91166D02*
X-107900D01*
X-108566D01*
X-109899Y92498D01*
X-108900Y91499D01*
X-107900Y92498D01*
X-109899Y94498D02*
Y93165D01*
X-108900D01*
X-109233Y93831D01*
Y94165D01*
X-108900Y94498D01*
X-108233D01*
X-107900Y94165D01*
Y93498D01*
X-108233Y93165D01*
X-182000Y48000D02*
X-181333D01*
X-181667D01*
Y49999D01*
X-182000Y49666D01*
X-179001Y49999D02*
X-179667Y49666D01*
X-180334Y49000D01*
Y48333D01*
X-180001Y48000D01*
X-179334D01*
X-179001Y48333D01*
Y48666D01*
X-179334Y49000D01*
X-180334D01*
X-178334Y49999D02*
Y48000D01*
Y48666D01*
X-177002Y49999D01*
X-178001Y49000D01*
X-177002Y48000D01*
X-175002Y49999D02*
X-176335D01*
Y49000D01*
X-175669Y49333D01*
X-175336D01*
X-175002Y49000D01*
Y48333D01*
X-175336Y48000D01*
X-176002D01*
X-176335Y48333D01*
X-83000Y97000D02*
X-82300D01*
X-82650D01*
Y99099D01*
X-83000Y98749D01*
X-79851Y99099D02*
X-80551Y98749D01*
X-81251Y98050D01*
Y97350D01*
X-80901Y97000D01*
X-80201D01*
X-79851Y97350D01*
Y97700D01*
X-80201Y98050D01*
X-81251D01*
X-79151Y99099D02*
Y97000D01*
Y97700D01*
X-77752Y99099D01*
X-78801Y98050D01*
X-77752Y97000D01*
X-75652Y99099D02*
X-77052D01*
Y98050D01*
X-76352Y98400D01*
X-76002D01*
X-75652Y98050D01*
Y97350D01*
X-76002Y97000D01*
X-76702D01*
X-77052Y97350D01*
X-82700Y83800D02*
X-82000D01*
X-82350D01*
Y85899D01*
X-82700Y85549D01*
X-80951D02*
X-80601Y85899D01*
X-79901D01*
X-79551Y85549D01*
Y84150D01*
X-79901Y83800D01*
X-80601D01*
X-80951Y84150D01*
Y85549D01*
X-78851D02*
X-78501Y85899D01*
X-77802D01*
X-77452Y85549D01*
Y84150D01*
X-77802Y83800D01*
X-78501D01*
X-78851Y84150D01*
Y85549D01*
X-76752Y85899D02*
Y83800D01*
Y84500D01*
X-75352Y85899D01*
X-76402Y84850D01*
X-75352Y83800D01*
X-96200Y112300D02*
X-95534D01*
X-95867D01*
Y114299D01*
X-96200Y113966D01*
X-94534D02*
X-94201Y114299D01*
X-93534D01*
X-93201Y113966D01*
Y112633D01*
X-93534Y112300D01*
X-94201D01*
X-94534Y112633D01*
Y113966D01*
X-92535Y114299D02*
Y112300D01*
Y112967D01*
X-91202Y114299D01*
X-92201Y113300D01*
X-91202Y112300D01*
X-225600Y133199D02*
Y131533D01*
X-225267Y131200D01*
X-224600D01*
X-224267Y131533D01*
Y133199D01*
X-222268Y131200D02*
X-223601D01*
X-222268Y132533D01*
Y132866D01*
X-222601Y133199D01*
X-223267D01*
X-223601Y132866D01*
X-221601D02*
X-221268Y133199D01*
X-220602D01*
X-220268Y132866D01*
Y131533D01*
X-220602Y131200D01*
X-221268D01*
X-221601Y131533D01*
Y132866D01*
X-219602Y131200D02*
X-218935D01*
X-219269D01*
Y133199D01*
X-219602Y132866D01*
X-156650Y194119D02*
Y192453D01*
X-156317Y192120D01*
X-155651D01*
X-155317Y192453D01*
Y194119D01*
X-153318Y192120D02*
X-154651D01*
X-153318Y193453D01*
Y193786D01*
X-153651Y194119D01*
X-154318D01*
X-154651Y193786D01*
X-152652D02*
X-152319Y194119D01*
X-151652D01*
X-151319Y193786D01*
Y192453D01*
X-151652Y192120D01*
X-152319D01*
X-152652Y192453D01*
Y193786D01*
X-149653Y192120D02*
Y194119D01*
X-150652Y193119D01*
X-149319D01*
X-123319Y95215D02*
Y93549D01*
X-122986Y93216D01*
X-122319D01*
X-121986Y93549D01*
Y95215D01*
X-119987Y93216D02*
X-121320D01*
X-119987Y94548D01*
Y94882D01*
X-120320Y95215D01*
X-120986D01*
X-121320Y94882D01*
X-119320D02*
X-118987Y95215D01*
X-118321D01*
X-117987Y94882D01*
Y93549D01*
X-118321Y93216D01*
X-118987D01*
X-119320Y93549D01*
Y94882D01*
X-115988Y95215D02*
X-117321D01*
Y94215D01*
X-116654Y94548D01*
X-116321D01*
X-115988Y94215D01*
Y93549D01*
X-116321Y93216D01*
X-116988D01*
X-117321Y93549D01*
X-191650Y52119D02*
Y50453D01*
X-191317Y50120D01*
X-190651D01*
X-190317Y50453D01*
Y52119D01*
X-188318Y50120D02*
X-189651D01*
X-188318Y51453D01*
Y51786D01*
X-188651Y52119D01*
X-189318D01*
X-189651Y51786D01*
X-187652D02*
X-187319Y52119D01*
X-186652D01*
X-186319Y51786D01*
Y50453D01*
X-186652Y50120D01*
X-187319D01*
X-187652Y50453D01*
Y51786D01*
X-185652Y52119D02*
X-184319D01*
Y51786D01*
X-185652Y50453D01*
Y50120D01*
X-193500Y28799D02*
Y27133D01*
X-193167Y26800D01*
X-192500D01*
X-192167Y27133D01*
Y28799D01*
X-191501Y28466D02*
X-191167Y28799D01*
X-190501D01*
X-190168Y28466D01*
Y28133D01*
X-190501Y27800D01*
X-190834D01*
X-190501D01*
X-190168Y27466D01*
Y27133D01*
X-190501Y26800D01*
X-191167D01*
X-191501Y27133D01*
X-189501Y28466D02*
X-189168Y28799D01*
X-188502D01*
X-188168Y28466D01*
Y27133D01*
X-188502Y26800D01*
X-189168D01*
X-189501Y27133D01*
Y28466D01*
X-187502Y26800D02*
X-186836D01*
X-187169D01*
Y28799D01*
X-187502Y28466D01*
X-172200Y30299D02*
Y28633D01*
X-171867Y28300D01*
X-171200D01*
X-170867Y28633D01*
Y30299D01*
X-170201Y29966D02*
X-169867Y30299D01*
X-169201D01*
X-168868Y29966D01*
Y29633D01*
X-169201Y29300D01*
X-169534D01*
X-169201D01*
X-168868Y28966D01*
Y28633D01*
X-169201Y28300D01*
X-169867D01*
X-170201Y28633D01*
X-168201Y29966D02*
X-167868Y30299D01*
X-167202D01*
X-166868Y29966D01*
Y28633D01*
X-167202Y28300D01*
X-167868D01*
X-168201Y28633D01*
Y29966D01*
X-166202D02*
X-165869Y30299D01*
X-165202D01*
X-164869Y29966D01*
Y29633D01*
X-165202Y29300D01*
X-165535D01*
X-165202D01*
X-164869Y28966D01*
Y28633D01*
X-165202Y28300D01*
X-165869D01*
X-166202Y28633D01*
X-82200Y165999D02*
Y164333D01*
X-81867Y164000D01*
X-81200D01*
X-80867Y164333D01*
Y165999D01*
X-79201Y164000D02*
Y165999D01*
X-80201Y165000D01*
X-78868D01*
X-78201Y165666D02*
X-77868Y165999D01*
X-77202D01*
X-76868Y165666D01*
Y164333D01*
X-77202Y164000D01*
X-77868D01*
X-78201Y164333D01*
Y165666D01*
X-76202D02*
X-75869Y165999D01*
X-75202D01*
X-74869Y165666D01*
Y164333D01*
X-75202Y164000D01*
X-75869D01*
X-76202Y164333D01*
Y165666D01*
X-64400Y166199D02*
Y164533D01*
X-64067Y164200D01*
X-63400D01*
X-63067Y164533D01*
Y166199D01*
X-61401Y164200D02*
Y166199D01*
X-62401Y165200D01*
X-61068D01*
X-60401Y165866D02*
X-60068Y166199D01*
X-59402D01*
X-59068Y165866D01*
Y164533D01*
X-59402Y164200D01*
X-60068D01*
X-60401Y164533D01*
Y165866D01*
X-58402Y164200D02*
X-57736D01*
X-58069D01*
Y166199D01*
X-58402Y165866D01*
X-149900Y52599D02*
Y50933D01*
X-149567Y50600D01*
X-148900D01*
X-148567Y50933D01*
Y52599D01*
X-146901Y50600D02*
Y52599D01*
X-147901Y51600D01*
X-146568D01*
X-145901Y52266D02*
X-145568Y52599D01*
X-144902D01*
X-144568Y52266D01*
Y50933D01*
X-144902Y50600D01*
X-145568D01*
X-145901Y50933D01*
Y52266D01*
X-142569Y50600D02*
X-143902D01*
X-142569Y51933D01*
Y52266D01*
X-142902Y52599D01*
X-143569D01*
X-143902Y52266D01*
X-186550Y198819D02*
Y196736D01*
X-186134Y196320D01*
X-185301D01*
X-184884Y196736D01*
Y198819D01*
X-182385D02*
X-184051D01*
Y197569D01*
X-183218Y197986D01*
X-182802D01*
X-182385Y197569D01*
Y196736D01*
X-182802Y196320D01*
X-183635D01*
X-184051Y196736D01*
X-181552Y198402D02*
X-181135Y198819D01*
X-180302D01*
X-179886Y198402D01*
Y196736D01*
X-180302Y196320D01*
X-181135D01*
X-181552Y196736D01*
Y198402D01*
X-179053D02*
X-178636Y198819D01*
X-177803D01*
X-177387Y198402D01*
Y196736D01*
X-177803Y196320D01*
X-178636D01*
X-179053Y196736D01*
Y198402D01*
X-107450Y198319D02*
Y196653D01*
X-107117Y196320D01*
X-106451D01*
X-106117Y196653D01*
Y198319D01*
X-104118D02*
X-105451D01*
Y197319D01*
X-104785Y197653D01*
X-104451D01*
X-104118Y197319D01*
Y196653D01*
X-104451Y196320D01*
X-105118D01*
X-105451Y196653D01*
X-103452Y197986D02*
X-103119Y198319D01*
X-102452D01*
X-102119Y197986D01*
Y196653D01*
X-102452Y196320D01*
X-103119D01*
X-103452Y196653D01*
Y197986D01*
X-101452Y196320D02*
X-100786D01*
X-101119D01*
Y198319D01*
X-101452Y197986D01*
X-133450Y198419D02*
Y196753D01*
X-133117Y196420D01*
X-132451D01*
X-132117Y196753D01*
Y198419D01*
X-130118D02*
X-131451D01*
Y197419D01*
X-130785Y197753D01*
X-130451D01*
X-130118Y197419D01*
Y196753D01*
X-130451Y196420D01*
X-131118D01*
X-131451Y196753D01*
X-129452Y198086D02*
X-129119Y198419D01*
X-128452D01*
X-128119Y198086D01*
Y196753D01*
X-128452Y196420D01*
X-129119D01*
X-129452Y196753D01*
Y198086D01*
X-126119Y196420D02*
X-127452D01*
X-126119Y197753D01*
Y198086D01*
X-126453Y198419D01*
X-127119D01*
X-127452Y198086D01*
X-223350Y180019D02*
Y178353D01*
X-223017Y178020D01*
X-222351D01*
X-222018Y178353D01*
Y180019D01*
X-220018D02*
X-221351D01*
Y179019D01*
X-220685Y179353D01*
X-220351D01*
X-220018Y179019D01*
Y178353D01*
X-220351Y178020D01*
X-221018D01*
X-221351Y178353D01*
X-219352Y179686D02*
X-219019Y180019D01*
X-218352D01*
X-218019Y179686D01*
Y178353D01*
X-218352Y178020D01*
X-219019D01*
X-219352Y178353D01*
Y179686D01*
X-217352D02*
X-217019Y180019D01*
X-216353D01*
X-216019Y179686D01*
Y179353D01*
X-216353Y179019D01*
X-216686D01*
X-216353D01*
X-216019Y178686D01*
Y178353D01*
X-216353Y178020D01*
X-217019D01*
X-217352Y178353D01*
X-187550Y177719D02*
Y176053D01*
X-187217Y175720D01*
X-186551D01*
X-186217Y176053D01*
Y177719D01*
X-184218D02*
X-184885Y177386D01*
X-185551Y176719D01*
Y176053D01*
X-185218Y175720D01*
X-184551D01*
X-184218Y176053D01*
Y176386D01*
X-184551Y176719D01*
X-185551D01*
X-183552Y177386D02*
X-183219Y177719D01*
X-182552D01*
X-182219Y177386D01*
Y176053D01*
X-182552Y175720D01*
X-183219D01*
X-183552Y176053D01*
Y177386D01*
X-181552D02*
X-181219Y177719D01*
X-180553D01*
X-180219Y177386D01*
Y176053D01*
X-180553Y175720D01*
X-181219D01*
X-181552Y176053D01*
Y177386D01*
X-219031Y96441D02*
X-217365D01*
X-217032Y96774D01*
Y97441D01*
X-217365Y97774D01*
X-219031D01*
Y99773D02*
X-218698Y99107D01*
X-218031Y98440D01*
X-217365D01*
X-217032Y98774D01*
Y99440D01*
X-217365Y99773D01*
X-217698D01*
X-218031Y99440D01*
Y98440D01*
X-218698Y100440D02*
X-219031Y100773D01*
Y101439D01*
X-218698Y101773D01*
X-217365D01*
X-217032Y101439D01*
Y100773D01*
X-217365Y100440D01*
X-218698D01*
X-217032Y102439D02*
Y103106D01*
Y102772D01*
X-219031D01*
X-218698Y102439D01*
X-98900Y163199D02*
X-97567Y161200D01*
Y163199D02*
X-98900Y161200D01*
X-95568Y163199D02*
X-96234Y162866D01*
X-96901Y162200D01*
Y161533D01*
X-96567Y161200D01*
X-95901D01*
X-95568Y161533D01*
Y161866D01*
X-95901Y162200D01*
X-96901D01*
X-94901Y162866D02*
X-94568Y163199D01*
X-93902D01*
X-93568Y162866D01*
Y161533D01*
X-93902Y161200D01*
X-94568D01*
X-94901Y161533D01*
Y162866D01*
X-92902D02*
X-92569Y163199D01*
X-91902D01*
X-91569Y162866D01*
Y161533D01*
X-91902Y161200D01*
X-92569D01*
X-92902Y161533D01*
Y162866D01*
X-221067Y206800D02*
X-222400D01*
X-221067Y208133D01*
Y208466D01*
X-221400Y208799D01*
X-222067D01*
X-222400Y208466D01*
X-220401Y208133D02*
Y207133D01*
X-220067Y206800D01*
X-219068D01*
Y208133D01*
X-217068Y206800D02*
X-218401D01*
X-217068Y208133D01*
Y208466D01*
X-217402Y208799D01*
X-218068D01*
X-218401Y208466D01*
X-218200Y220700D02*
X-217467D01*
X-217833D01*
Y222899D01*
X-218200Y222533D01*
X-216367Y222166D02*
Y221067D01*
X-216001Y220700D01*
X-214901D01*
Y222166D01*
X-213200Y220600D02*
X-212534D01*
X-212867D01*
Y222599D01*
X-213200Y222266D01*
X-211534D02*
X-211201Y222599D01*
X-210534D01*
X-210201Y222266D01*
Y220933D01*
X-210534Y220600D01*
X-211201D01*
X-211534Y220933D01*
Y222266D01*
X-209535Y220600D02*
Y221933D01*
X-208535D01*
X-208202Y221600D01*
Y220600D01*
X-210650Y193419D02*
Y191753D01*
X-210317Y191420D01*
X-209651D01*
X-209317Y191753D01*
Y193419D01*
X-207318Y191420D02*
X-208651D01*
X-207318Y192753D01*
Y193086D01*
X-207651Y193419D01*
X-208318D01*
X-208651Y193086D01*
X-206652D02*
X-206318Y193419D01*
X-205652D01*
X-205319Y193086D01*
Y191753D01*
X-205652Y191420D01*
X-206318D01*
X-206652Y191753D01*
Y193086D01*
X-204652D02*
X-204319Y193419D01*
X-203653D01*
X-203319Y193086D01*
Y192753D01*
X-203653Y192419D01*
X-203319Y192086D01*
Y191753D01*
X-203653Y191420D01*
X-204319D01*
X-204652Y191753D01*
Y192086D01*
X-204319Y192419D01*
X-204652Y192753D01*
Y193086D01*
X-204319Y192419D02*
X-203653D01*
X-66134Y156299D02*
X-66967D01*
X-66550D01*
Y154217D01*
X-66967Y153800D01*
X-67383D01*
X-67800Y154217D01*
X-63635Y156299D02*
X-65301D01*
Y155050D01*
X-64468Y155466D01*
X-64051D01*
X-63635Y155050D01*
Y154217D01*
X-64051Y153800D01*
X-64884D01*
X-65301Y154217D01*
X-62802Y155883D02*
X-62385Y156299D01*
X-61552D01*
X-61136Y155883D01*
Y154217D01*
X-61552Y153800D01*
X-62385D01*
X-62802Y154217D01*
Y155883D01*
X-60302Y156299D02*
X-58636D01*
Y155883D01*
X-60302Y154217D01*
Y153800D01*
X-228500Y144000D02*
Y144333D01*
X-228167D01*
Y144000D01*
X-228500D01*
X-57798Y122349D02*
X-59131D01*
X-59464Y122015D01*
Y121349D01*
X-59131Y121016D01*
X-57798D01*
X-57465Y121349D01*
Y122015D01*
X-58131Y121682D02*
X-57465Y122349D01*
Y122015D02*
X-57798Y122349D01*
X-59797Y123348D02*
X-59131D01*
X-58798Y123015D01*
X-57465Y124348D02*
Y125348D01*
X-57798Y125681D01*
X-58131Y125348D01*
Y124681D01*
X-58464Y124348D01*
X-58798Y124681D01*
Y125681D01*
X-57465Y128347D02*
Y129013D01*
Y128680D01*
X-59464D01*
Y128347D01*
X-57465Y130013D02*
Y130679D01*
Y130346D01*
X-58798D01*
Y130013D01*
X-59464Y131679D02*
X-57465D01*
Y132679D01*
X-57798Y133012D01*
X-58131D01*
X-58464D01*
X-58798Y132679D01*
Y131679D01*
X-242202Y85651D02*
X-240869D01*
X-240536Y85985D01*
Y86651D01*
X-240869Y86984D01*
X-242202D01*
X-242535Y86651D01*
Y85985D01*
X-241869Y86318D02*
X-242535Y85651D01*
Y85985D02*
X-242202Y85651D01*
X-240203Y84652D02*
X-240869D01*
X-241202Y84985D01*
X-242535Y83652D02*
Y82652D01*
X-242202Y82319D01*
X-241869Y82652D01*
Y83319D01*
X-241536Y83652D01*
X-241202Y83319D01*
Y82319D01*
X-242535Y79653D02*
Y78987D01*
Y79320D01*
X-240536D01*
Y79653D01*
X-242535Y77987D02*
Y77321D01*
Y77654D01*
X-241202D01*
Y77987D01*
X-240536Y76321D02*
X-242535D01*
Y75321D01*
X-242202Y74988D01*
X-241869D01*
X-241536D01*
X-241202Y75321D01*
Y76321D01*
X-50000Y244500D02*
Y245166D01*
Y244833D01*
X-51999D01*
X-51666Y244500D01*
X-51999Y234000D02*
X-50666D01*
X-50000Y234666D01*
X-50666Y235333D01*
X-51999D01*
X-51666Y265833D02*
X-51999Y265500D01*
Y264833D01*
X-51666Y264500D01*
X-50333D01*
X-50000Y264833D01*
Y265500D01*
X-50333Y265833D01*
X-51000D01*
Y265166D01*
X-50000Y255833D02*
Y254500D01*
X-51333Y255833D01*
X-51666D01*
X-51999Y255500D01*
Y254833D01*
X-51666Y254500D01*
X-128800Y23466D02*
X-127467Y22133D01*
X-128800D02*
X-127467Y23466D01*
X-128800Y22800D02*
X-127467D01*
X-128133Y22133D02*
Y23466D01*
X-126801Y21800D02*
X-126134D01*
X-126467D01*
Y23799D01*
X-126801Y23466D01*
X-123135Y22466D02*
X-121802D01*
X-123135Y23133D02*
X-121802D01*
X-119137Y21800D02*
X-118470D01*
X-118803D01*
Y23799D01*
X-119137Y23466D01*
X-117470D02*
X-117137Y23799D01*
X-116471D01*
X-116137Y23466D01*
Y22133D01*
X-116471Y21800D01*
X-117137D01*
X-117470Y22133D01*
Y23466D01*
X-115471Y23799D02*
Y21800D01*
Y22466D01*
X-114138Y23799D01*
X-115138Y22800D01*
X-114138Y21800D01*
X-113472D02*
X-112139Y23133D01*
X-111472Y23466D02*
X-111139Y23799D01*
X-110473D01*
X-110139Y23466D01*
Y22133D01*
X-110473Y21800D01*
X-111139D01*
X-111472Y22133D01*
Y23466D01*
X-109473Y21800D02*
Y22133D01*
X-109140D01*
Y21800D01*
X-109473D01*
X-107807D02*
X-107140D01*
X-107474D01*
Y23799D01*
X-107807Y23466D01*
X-106141Y22133D02*
X-104474Y23799D01*
X-106141D02*
Y24133D01*
X-105807D01*
Y23799D01*
X-106141D01*
X-104808Y21800D02*
Y22133D01*
X-104474D01*
Y21800D01*
X-104808D01*
X-239100Y238583D02*
X-237434Y236916D01*
X-239100D02*
X-237434Y238583D01*
X-239100Y237750D02*
X-237434D01*
X-238267Y236916D02*
Y238583D01*
X-236601Y236500D02*
X-235768D01*
X-236184D01*
Y238999D01*
X-236601Y238583D01*
X-207804D02*
X-206138Y236916D01*
X-207804D02*
X-206138Y238583D01*
X-207804Y237750D02*
X-206138D01*
X-206971Y236916D02*
Y238583D01*
X-205305Y236500D02*
X-204471D01*
X-204888D01*
Y238999D01*
X-205305Y238583D01*
X-178134Y236600D02*
X-179800D01*
X-178134Y238266D01*
Y238683D01*
X-178550Y239099D01*
X-179384D01*
X-179800Y238683D01*
X-175635Y236600D02*
X-177301D01*
X-175635Y238266D01*
Y238683D01*
X-176051Y239099D01*
X-176884D01*
X-177301Y238683D01*
X-174802D02*
X-174385Y239099D01*
X-173552D01*
X-173135Y238683D01*
Y237017D01*
X-173552Y236600D01*
X-174385D01*
X-174802Y237017D01*
Y238683D01*
X-172302Y236600D02*
Y239099D01*
X-171053D01*
X-170636Y238683D01*
Y237850D01*
X-171053Y237433D01*
X-172302D01*
X-171469D02*
X-170636Y236600D01*
X-107934D02*
X-109600D01*
X-107934Y238266D01*
Y238683D01*
X-108350Y239099D01*
X-109184D01*
X-109600Y238683D01*
X-105435Y236600D02*
X-107101D01*
X-105435Y238266D01*
Y238683D01*
X-105851Y239099D01*
X-106684D01*
X-107101Y238683D01*
X-104602D02*
X-104185Y239099D01*
X-103352D01*
X-102936Y238683D01*
Y237017D01*
X-103352Y236600D01*
X-104185D01*
X-104602Y237017D01*
Y238683D01*
X-102102Y236600D02*
Y239099D01*
X-100853D01*
X-100436Y238683D01*
Y237850D01*
X-100853Y237433D01*
X-102102D01*
X-101269D02*
X-100436Y236600D01*
X-82200Y238583D02*
X-80534Y236916D01*
X-82200D02*
X-80534Y238583D01*
X-82200Y237750D02*
X-80534D01*
X-81367Y236916D02*
Y238583D01*
X-79701Y236500D02*
X-78868D01*
X-79284D01*
Y238999D01*
X-79701Y238583D01*
X-225700Y220500D02*
X-224934D01*
X-225317D01*
Y222799D01*
X-225700Y222416D01*
X-223784D02*
X-223401Y222799D01*
X-222634D01*
X-222251Y222416D01*
Y220883D01*
X-222634Y220500D01*
X-223401D01*
X-223784Y220883D01*
Y222416D01*
X-221485Y222033D02*
Y220883D01*
X-221101Y220500D01*
X-219952D01*
Y222033D01*
X-200200Y220600D02*
X-199434D01*
X-199817D01*
Y222899D01*
X-200200Y222516D01*
X-198284D02*
X-197901Y222899D01*
X-197134D01*
X-196751Y222516D01*
Y220983D01*
X-197134Y220600D01*
X-197901D01*
X-198284Y220983D01*
Y222516D01*
X-195985Y222133D02*
Y220983D01*
X-195601Y220600D01*
X-194452D01*
Y222133D01*
X-164000Y222583D02*
X-162334Y220917D01*
X-164000D02*
X-162334Y222583D01*
X-164000Y221750D02*
X-162334D01*
X-163167Y220917D02*
Y222583D01*
X-161501Y220500D02*
X-160668D01*
X-161084D01*
Y222999D01*
X-161501Y222583D01*
X-203500Y197000D02*
Y196667D01*
X-203833D01*
Y197000D01*
X-203500D01*
X-120198Y222197D02*
X-118865D01*
X-119531D01*
Y220198D01*
X-86698Y222899D02*
X-85365D01*
X-86031D01*
Y220900D01*
X-79600Y222899D02*
Y220900D01*
X-78267D01*
X-73500Y200200D02*
X-72834D01*
X-73167D01*
Y202199D01*
X-73500Y201866D01*
X-71834Y202199D02*
Y200200D01*
Y200867D01*
X-70501Y202199D01*
X-71501Y201200D01*
X-70501Y200200D01*
X-68502Y202199D02*
X-69835D01*
Y201200D01*
X-69168Y201533D01*
X-68835D01*
X-68502Y201200D01*
Y200533D01*
X-68835Y200200D01*
X-69501D01*
X-69835Y200533D01*
X-70867Y196700D02*
X-72200D01*
X-70867Y198033D01*
Y198366D01*
X-71200Y198699D01*
X-71867D01*
X-72200Y198366D01*
X-68868Y196700D02*
X-70201D01*
X-68868Y198033D01*
Y198366D01*
X-69201Y198699D01*
X-69867D01*
X-70201Y198366D01*
X-68201D02*
X-67868Y198699D01*
X-67202D01*
X-66868Y198366D01*
Y197033D01*
X-67202Y196700D01*
X-67868D01*
X-68201Y197033D01*
Y198366D01*
X-66202Y196700D02*
Y198699D01*
X-65202D01*
X-64869Y198366D01*
Y197700D01*
X-65202Y197366D01*
X-66202D01*
X-65535D02*
X-64869Y196700D01*
X-55800Y194699D02*
X-54467D01*
X-55134D01*
Y192700D01*
X-54500Y169034D02*
X-55833Y170367D01*
X-54500D02*
X-55833Y169034D01*
X-54500Y169700D02*
X-55833D01*
X-55166Y170367D02*
Y169034D01*
X-91600Y196099D02*
Y194766D01*
X-90934Y194100D01*
X-90267Y194766D01*
Y196099D01*
X-89601D02*
Y194100D01*
X-88601D01*
X-88268Y194433D01*
Y195766D01*
X-88601Y196099D01*
X-89601D01*
X-87601D02*
Y194100D01*
X-86602D01*
X-86268Y194433D01*
Y195766D01*
X-86602Y196099D01*
X-87601D01*
X-82000D02*
X-81334D01*
X-81667D01*
Y194100D01*
X-82000D01*
X-81334D01*
X-79334Y196099D02*
X-80001D01*
X-80334Y195766D01*
Y194433D01*
X-80001Y194100D01*
X-79334D01*
X-79001Y194433D01*
Y195766D01*
X-79334Y196099D01*
X-83000Y158616D02*
X-82617Y158999D01*
X-81850D01*
X-81467Y158616D01*
Y158233D01*
X-81850Y157850D01*
X-81467Y157466D01*
Y157083D01*
X-81850Y156700D01*
X-82617D01*
X-83000Y157083D01*
Y157466D01*
X-82617Y157850D01*
X-83000Y158233D01*
Y158616D01*
X-82617Y157850D02*
X-81850D01*
X-80701Y156700D02*
Y158999D01*
X-79551D01*
X-79168Y158616D01*
Y157850D01*
X-79551Y157466D01*
X-80701D01*
D92*
X-211500Y96100D02*
X-212100Y96700D01*
X-212700Y96100D01*
X-212100Y95500D01*
X-211500Y96100D01*
X-217900Y23100D02*
X-216000D01*
X-217900D02*
Y25100D01*
Y44827D02*
X-216000D01*
X-217900Y42858D02*
Y44827D01*
X-206079D02*
X-204110D01*
Y42858D02*
Y44827D01*
X-206079Y23100D02*
X-204110Y25100D01*
X-150874Y28953D02*
Y30353D01*
Y28953D02*
X-149496D01*
X-150874Y43349D02*
Y44727D01*
X-149496D01*
X-136500Y28953D02*
X-135100D01*
Y30353D01*
X-136500Y44727D02*
X-135100Y43349D01*
X-192000Y75800D02*
Y80800D01*
X-186000Y75800D02*
Y80800D01*
X-171500Y80814D02*
Y84008D01*
X-173900D02*
X-171500D01*
X-182612Y80814D02*
Y84008D01*
X-180250D01*
X-175500Y43427D02*
Y46327D01*
X-174600D01*
X-162504Y43427D02*
Y46327D01*
X-163488D02*
X-162504D01*
X-163488Y33331D02*
X-162504D01*
Y36283D01*
X-184594Y46327D02*
X-182626D01*
Y44358D02*
Y46327D01*
X-198374Y44358D02*
Y46327D01*
X-196406D01*
X-198374Y30579D02*
Y32547D01*
Y30579D02*
X-196406D01*
X-67900Y181600D02*
Y182500D01*
X-66500D01*
X-55100Y181600D02*
Y182400D01*
X-56500D02*
X-55100D01*
X-68000Y169600D02*
Y171000D01*
Y169600D02*
X-66600D01*
X-61100Y46600D02*
Y50099D01*
X-59351D01*
X-58767Y49516D01*
Y48349D01*
X-59351Y47766D01*
X-61100D01*
X-57601Y46600D02*
Y50099D01*
X-55852D01*
X-55269Y49516D01*
Y48349D01*
X-55852Y47766D01*
X-57601D01*
X-56435D02*
X-55269Y46600D01*
X-51770Y49516D02*
X-52353Y50099D01*
X-53519D01*
X-54102Y49516D01*
Y48933D01*
X-53519Y48349D01*
X-52353D01*
X-51770Y47766D01*
Y47183D01*
X-52353Y46600D01*
X-53519D01*
X-54102Y47183D01*
X-73000Y46000D02*
Y48333D01*
X-71834Y49499D01*
X-70667Y48333D01*
Y46000D01*
Y47749D01*
X-73000D01*
X-69501Y49499D02*
Y46000D01*
X-67752D01*
X-67169Y46583D01*
Y48916D01*
X-67752Y49499D01*
X-69501D01*
X-66002Y46000D02*
X-64836D01*
X-65419D01*
Y49499D01*
X-66002Y48916D01*
X-75100Y65799D02*
Y63466D01*
X-73934Y62300D01*
X-72767Y63466D01*
Y65799D01*
X-73067Y75116D02*
X-73651Y75699D01*
X-74817D01*
X-75400Y75116D01*
Y72783D01*
X-74817Y72200D01*
X-73651D01*
X-73067Y72783D01*
Y73949D01*
X-74234D01*
D93*
X-191500Y202526D02*
X-192100D01*
X-191500D01*
X-113676Y202022D02*
X-114276D01*
X-113676D01*
X-236575Y134874D02*
Y141224D01*
Y134874D02*
X-233400D01*
Y141224D01*
X-236575D02*
X-233400D01*
X-195425Y55212D02*
Y61561D01*
X-198600D02*
X-195425D01*
X-198600Y55212D02*
Y61561D01*
Y55212D02*
X-195425D01*
X-79425Y212250D02*
Y218600D01*
X-82600D02*
X-79425D01*
X-82600Y212250D02*
Y218600D01*
Y212250D02*
X-79425D01*
X-142032Y54594D02*
X-140063Y56563D01*
Y66500D01*
X-148000D02*
X-140063D01*
X-148000Y54594D02*
Y66500D01*
Y54594D02*
X-142032D01*
X-232575Y226800D02*
Y233150D01*
Y226800D02*
X-229400D01*
Y233150D01*
X-232575D02*
X-229400D01*
X-219575Y226800D02*
Y233150D01*
Y226800D02*
X-216400D01*
Y233150D01*
X-219575D02*
X-216400D01*
X-201103Y235500D02*
X-134600D01*
X-190800Y203510D02*
Y217300D01*
X-173042D01*
Y203510D02*
Y217300D01*
X-190800Y203510D02*
X-173042D01*
X-112976Y203006D02*
Y216796D01*
X-95218D01*
Y203006D02*
Y216796D01*
X-112976Y203006D02*
X-95218D01*
D94*
X-87000Y170600D02*
Y180800D01*
X-71300D01*
Y173600D02*
Y180800D01*
X-74300Y170600D02*
X-71300Y173600D01*
X-87000Y170600D02*
X-74300D01*
X-89700Y168000D02*
X-72700D01*
X-89700D02*
Y183400D01*
X-72700Y168000D02*
X-68500Y172200D01*
Y183400D01*
X-89700D02*
X-68500D01*
X-89700Y168000D02*
X-68400D01*
X-68500Y168100D02*
X-68400Y168000D01*
X-68500Y168100D02*
Y172200D01*
X-107000Y250000D02*
X-67000D01*
X-107000Y260000D02*
X-67000D01*
X-139000Y240500D02*
Y270000D01*
X-149000Y240500D02*
Y270000D01*
X-159000Y240500D02*
Y270000D01*
X-169000Y240500D02*
Y270000D01*
X-179000Y240500D02*
Y270000D01*
X-189000Y240500D02*
Y270000D01*
X-199000Y240500D02*
Y270000D01*
X-209000Y240500D02*
Y270000D01*
Y240500D02*
Y270000D01*
X-233000Y240000D02*
Y270000D01*
X-55102Y106843D02*
Y147000D01*
X-69276Y106843D02*
Y147000D01*
X-244898Y61000D02*
Y101157D01*
X-230724Y61000D02*
Y101157D01*
X-64700Y169700D02*
X-58700D01*
D95*
X-101040Y82000D02*
X-100900D01*
X-142100Y211300D02*
X-141961D01*
D96*
X-53000Y81000D02*
Y101000D01*
X-58000D02*
X-53000D01*
X-58000Y81000D02*
X-53000D01*
X-58000D02*
Y101000D01*
X-53000Y84333D02*
X-39667D01*
X-38000Y86000D01*
X-39667Y87667D02*
X-38000Y86000D01*
X-53000Y87667D02*
X-39667D01*
X-53000Y94333D02*
X-39667D01*
X-38000Y96000D01*
X-39667Y97667D02*
X-38000Y96000D01*
X-53000Y97667D02*
X-39667D01*
D97*
X-150136Y10700D02*
X-151500D01*
X-150136Y12064D01*
Y12405D01*
X-150477Y12747D01*
X-151159D01*
X-151500Y12405D01*
X-149453Y12064D02*
Y11041D01*
X-149112Y10700D01*
X-148089D01*
Y12064D01*
X-146043Y10700D02*
X-147407D01*
X-146043Y12064D01*
Y12405D01*
X-146384Y12747D01*
X-147066D01*
X-147407Y12405D01*
X-175600Y10600D02*
X-174918D01*
X-175259D01*
Y12647D01*
X-175600Y12306D01*
X-173895D02*
X-173553Y12647D01*
X-172871D01*
X-172530Y12306D01*
Y10941D01*
X-172871Y10600D01*
X-173553D01*
X-173895Y10941D01*
Y12306D01*
X-171848Y11964D02*
Y10941D01*
X-171507Y10600D01*
X-170484D01*
Y11964D01*
X-128809Y16522D02*
Y14475D01*
X-127445D01*
X-124716Y15158D02*
X-123352D01*
X-124716Y15840D02*
X-123352D01*
X-120623Y16522D02*
Y14475D01*
Y15158D01*
X-119259Y16522D01*
X-120282Y15499D01*
X-119259Y14475D01*
X-118577D02*
Y16522D01*
X-117212Y14475D01*
Y16522D01*
X-116530D02*
Y14475D01*
Y15499D01*
X-115166D01*
Y16522D01*
Y14475D01*
X-114483D02*
X-113801D01*
X-114142D01*
Y16522D01*
X-114483Y16181D01*
X-111414Y16522D02*
X-112096Y16181D01*
X-112778Y15499D01*
Y14817D01*
X-112437Y14475D01*
X-111755D01*
X-111414Y14817D01*
Y15158D01*
X-111755Y15499D01*
X-112778D01*
X-109367Y16181D02*
X-109708Y16522D01*
X-110390D01*
X-110731Y16181D01*
Y14817D01*
X-110390Y14475D01*
X-109708D01*
X-109367Y14817D01*
X-108685Y14475D02*
X-108003D01*
X-108344D01*
Y16522D01*
X-108685Y16181D01*
X-106979D02*
X-106638Y16522D01*
X-105956D01*
X-105615Y16181D01*
Y14817D01*
X-105956Y14475D01*
X-106638D01*
X-106979Y14817D01*
Y16181D01*
X-103909Y14475D02*
Y16522D01*
X-104933Y15499D01*
X-103568D01*
X-128809Y20179D02*
X-127445D01*
X-128127D01*
Y18133D01*
X-124716Y18815D02*
X-123352D01*
X-124716Y19497D02*
X-123352D01*
X-120623Y20179D02*
Y18133D01*
X-119600D01*
X-119259Y18474D01*
Y19838D01*
X-119600Y20179D01*
X-120623D01*
X-118577D02*
X-117894D01*
X-118236D01*
Y18133D01*
X-118577D01*
X-117894D01*
X-115848Y20179D02*
X-116530D01*
X-116871Y19838D01*
Y18474D01*
X-116530Y18133D01*
X-115848D01*
X-115507Y18474D01*
Y19838D01*
X-115848Y20179D01*
X-114824D02*
Y18133D01*
X-113801D01*
X-113460Y18474D01*
Y19838D01*
X-113801Y20179D01*
X-114824D01*
X-111414D02*
X-112778D01*
Y18133D01*
X-111414D01*
X-112778Y19156D02*
X-112096D01*
X-110731D02*
X-109367D01*
X-108685Y20179D02*
X-107320D01*
X-108003D01*
Y18133D01*
X-106638Y20179D02*
Y18815D01*
X-105956Y18133D01*
X-105274Y18815D01*
Y20179D01*
X-103227Y19838D02*
X-103568Y20179D01*
X-104251D01*
X-104592Y19838D01*
Y19497D01*
X-104251Y19156D01*
X-103568D01*
X-103227Y18815D01*
Y18474D01*
X-103568Y18133D01*
X-104251D01*
X-104592Y18474D01*
X-197800Y67047D02*
Y65000D01*
X-196436D01*
X-203900Y66847D02*
X-202536D01*
X-203218D01*
Y64800D01*
X-224400Y51306D02*
X-223036Y49941D01*
X-224400D02*
X-223036Y51306D01*
X-224400Y50623D02*
X-223036D01*
X-223718Y49941D02*
Y51306D01*
X-222353Y49600D02*
X-221671D01*
X-222012D01*
Y51647D01*
X-222353Y51306D01*
X-225300Y157300D02*
X-224618D01*
X-224959D01*
Y159347D01*
X-225300Y159005D01*
X-223594D02*
X-223253Y159347D01*
X-222571D01*
X-222230Y159005D01*
Y157641D01*
X-222571Y157300D01*
X-223253D01*
X-223594Y157641D01*
Y159005D01*
X-221548Y158664D02*
Y157641D01*
X-221207Y157300D01*
X-220184D01*
Y158664D01*
X-214536Y117391D02*
X-215900D01*
X-214536Y118755D01*
Y119096D01*
X-214877Y119437D01*
X-215559D01*
X-215900Y119096D01*
X-212489Y117391D02*
X-213853D01*
X-212489Y118755D01*
Y119096D01*
X-212830Y119437D01*
X-213512D01*
X-213853Y119096D01*
X-211807Y118755D02*
Y117732D01*
X-211466Y117391D01*
X-210442D01*
Y118755D01*
X-212336Y157300D02*
X-213700D01*
X-212336Y158664D01*
Y159005D01*
X-212677Y159347D01*
X-213359D01*
X-213700Y159005D01*
X-210289Y157300D02*
X-211653D01*
X-210289Y158664D01*
Y159005D01*
X-210630Y159347D01*
X-211312D01*
X-211653Y159005D01*
X-209607Y158664D02*
Y157641D01*
X-209266Y157300D01*
X-208243D01*
Y158664D01*
X-234700Y132647D02*
Y130600D01*
X-233336D01*
X-242600Y141600D02*
X-241918D01*
X-242259D01*
Y143647D01*
X-242600Y143306D01*
X-240895D02*
X-240553Y143647D01*
X-239871D01*
X-239530Y143306D01*
Y141941D01*
X-239871Y141600D01*
X-240553D01*
X-240895Y141941D01*
Y143306D01*
X-238848Y143647D02*
Y141600D01*
Y142282D01*
X-237484Y143647D01*
X-238507Y142623D01*
X-237484Y141600D01*
X-128809Y13547D02*
Y11500D01*
X-127786D01*
X-127445Y11841D01*
Y13205D01*
X-127786Y13547D01*
X-128809D01*
X-125740Y11500D02*
X-126422D01*
X-126763Y11841D01*
Y12523D01*
X-126422Y12864D01*
X-125740D01*
X-125399Y12523D01*
Y12182D01*
X-126763D01*
X-124375Y11500D02*
Y13205D01*
Y12523D01*
X-124716D01*
X-124034D01*
X-124375D01*
Y13205D01*
X-124034Y13547D01*
X-122670Y12864D02*
X-121987D01*
X-121646Y12523D01*
Y11500D01*
X-122670D01*
X-123011Y11841D01*
X-122670Y12182D01*
X-121646D01*
X-120964Y11500D02*
X-120282D01*
X-120623D01*
Y13547D01*
X-120964D01*
X-119259Y12864D02*
Y11841D01*
X-118918Y11500D01*
X-117894D01*
Y12864D01*
X-116871Y13205D02*
Y12864D01*
X-117212D01*
X-116530D01*
X-116871D01*
Y11841D01*
X-116530Y11500D01*
X-112096Y13205D02*
X-112437Y13547D01*
X-113119D01*
X-113460Y13205D01*
Y11841D01*
X-113119Y11500D01*
X-112437D01*
X-112096Y11841D01*
X-111072Y12864D02*
X-110390D01*
X-110049Y12523D01*
Y11500D01*
X-111072D01*
X-111414Y11841D01*
X-111072Y12182D01*
X-110049D01*
X-109367Y10818D02*
Y12864D01*
X-108344D01*
X-108003Y12523D01*
Y11841D01*
X-108344Y11500D01*
X-109367D01*
X-105274Y12182D02*
X-103909D01*
X-105274Y12864D02*
X-103909D01*
X-101181Y13205D02*
X-100839Y13547D01*
X-100157D01*
X-99816Y13205D01*
Y11841D01*
X-100157Y11500D01*
X-100839D01*
X-101181Y11841D01*
Y13205D01*
X-99134Y12864D02*
Y11841D01*
X-98793Y11500D01*
X-97770D01*
Y12864D01*
X-97088Y11500D02*
X-96405D01*
X-96746D01*
Y13547D01*
X-97088Y13205D01*
X-80600Y49905D02*
X-79236Y48541D01*
X-80600D02*
X-79236Y49905D01*
X-80600Y49223D02*
X-79236D01*
X-79918Y48541D02*
Y49905D01*
X-78553Y48200D02*
X-77871D01*
X-78212D01*
Y50247D01*
X-78553Y49905D01*
X-95400Y30047D02*
Y28000D01*
X-94377D01*
X-94036Y28341D01*
Y29706D01*
X-94377Y30047D01*
X-95400D01*
X-91989D02*
X-93353D01*
Y28000D01*
X-91989D01*
X-93353Y29023D02*
X-92671D01*
X-91307Y30047D02*
Y28000D01*
X-90284D01*
X-89942Y28341D01*
Y28682D01*
X-90284Y29023D01*
X-91307D01*
X-90284D01*
X-89942Y29364D01*
Y29706D01*
X-90284Y30047D01*
X-91307D01*
X-89260D02*
Y28341D01*
X-88919Y28000D01*
X-88237D01*
X-87896Y28341D01*
Y30047D01*
X-85849Y29706D02*
X-86190Y30047D01*
X-86873D01*
X-87214Y29706D01*
Y28341D01*
X-86873Y28000D01*
X-86190D01*
X-85849Y28341D01*
Y29023D01*
X-86532D01*
X-95400Y42947D02*
Y40900D01*
X-94377D01*
X-94036Y41241D01*
Y41582D01*
X-94377Y41923D01*
X-95400D01*
X-94377D01*
X-94036Y42264D01*
Y42606D01*
X-94377Y42947D01*
X-95400D01*
X-93353Y40900D02*
X-91989Y42264D01*
X-89942Y42947D02*
X-91307D01*
Y40900D01*
X-89942D01*
X-91307Y41923D02*
X-90625D01*
X-95400Y53800D02*
Y55164D01*
X-94718Y55847D01*
X-94036Y55164D01*
Y53800D01*
Y54823D01*
X-95400D01*
X-91989Y55506D02*
X-92330Y55847D01*
X-93012D01*
X-93353Y55506D01*
Y54141D01*
X-93012Y53800D01*
X-92330D01*
X-91989Y54141D01*
X-91307Y55847D02*
X-89942D01*
X-90625D01*
Y53800D01*
X-123300Y67400D02*
X-122618D01*
X-122959D01*
Y69447D01*
X-123300Y69105D01*
X-121595D02*
X-121253Y69447D01*
X-120571D01*
X-120230Y69105D01*
Y67741D01*
X-120571Y67400D01*
X-121253D01*
X-121595Y67741D01*
Y69105D01*
X-119548D02*
X-119207Y69447D01*
X-118525D01*
X-118184Y69105D01*
Y67741D01*
X-118525Y67400D01*
X-119207D01*
X-119548Y67741D01*
Y69105D01*
X-117501Y69447D02*
Y67400D01*
Y68082D01*
X-116137Y69447D01*
X-117160Y68423D01*
X-116137Y67400D01*
X-105436Y62700D02*
X-106800D01*
X-105436Y64064D01*
Y64406D01*
X-105777Y64747D01*
X-106459D01*
X-106800Y64406D01*
X-103389Y62700D02*
X-104753D01*
X-103389Y64064D01*
Y64406D01*
X-103730Y64747D01*
X-104412D01*
X-104753Y64406D01*
X-102707D02*
X-102366Y64747D01*
X-101684D01*
X-101342Y64406D01*
Y63041D01*
X-101684Y62700D01*
X-102366D01*
X-102707Y63041D01*
Y64406D01*
X-100660Y62700D02*
Y64747D01*
X-99637D01*
X-99296Y64406D01*
Y63723D01*
X-99637Y63382D01*
X-100660D01*
X-99978D02*
X-99296Y62700D01*
X-231484Y239009D02*
Y236962D01*
X-230120D01*
X-218484Y239009D02*
Y236962D01*
X-217120D01*
D98*
X-213963Y236400D02*
X-213197D01*
X-213580D01*
Y238699D01*
X-213963Y238316D01*
X-212047Y236400D02*
Y238699D01*
X-211280Y237933D01*
X-210514Y238699D01*
Y236400D01*
X-226482D02*
X-225715D01*
X-226098D01*
Y238699D01*
X-226482Y238316D01*
X-224566Y236400D02*
Y238699D01*
X-223799Y237933D01*
X-223033Y238699D01*
Y236400D01*
D99*
X-160500Y54500D02*
D03*
X-160501Y64874D02*
D03*
X-160495Y59687D02*
D03*
X-118816Y76216D02*
D03*
X-213500Y55760D02*
D03*
X-213502Y50761D02*
D03*
X-120850Y29499D02*
D03*
Y37749D02*
D03*
Y45999D02*
D03*
Y54249D02*
D03*
Y62499D02*
D03*
X-81000Y200999D02*
D03*
X-103597Y39700D02*
D03*
X-103597Y52700D02*
D03*
X-103604Y46200D02*
D03*
X-103597Y33200D02*
D03*
X-103597Y59200D02*
D03*
X-213502Y60761D02*
D03*
X-81100Y206500D02*
D03*
X-94301Y118034D02*
D03*
X-79000Y93967D02*
D03*
X-79000Y88969D02*
D03*
D100*
X-229606Y126604D02*
D03*
X-243894Y150534D02*
D03*
X-184047Y103999D02*
D03*
X-167600Y213300D02*
D03*
X-162600D02*
D03*
X-157400Y213300D02*
D03*
X-109000Y80003D02*
D03*
X-179001Y57000D02*
D03*
X-234001Y150498D02*
D03*
X-238935Y150505D02*
D03*
X-149371Y229500D02*
D03*
X-143111Y229503D02*
D03*
X-82576Y40492D02*
D03*
X-136852Y229500D02*
D03*
X-68007Y229501D02*
D03*
X-86778Y229500D02*
D03*
X-93037Y229502D02*
D03*
X-99296Y229500D02*
D03*
X-111815Y229500D02*
D03*
X-80520Y229500D02*
D03*
X-118074Y229503D02*
D03*
X-76478Y40496D02*
D03*
X-155630Y229502D02*
D03*
X-161889Y229500D02*
D03*
X-168148Y229502D02*
D03*
X-174407Y229500D02*
D03*
X-186926D02*
D03*
X-193185Y229502D02*
D03*
X-199444Y229500D02*
D03*
X-237000Y229500D02*
D03*
X-224482Y229500D02*
D03*
X-211963Y229501D02*
D03*
X-205704Y229502D02*
D03*
X-180667Y229502D02*
D03*
X-105556Y229503D02*
D03*
X-124334Y229499D02*
D03*
X-130593Y229502D02*
D03*
X-74003Y229500D02*
D03*
X-205000Y214000D02*
D03*
X-152002Y213300D02*
D03*
X-69200Y189803D02*
D03*
X-74700Y189690D02*
D03*
X-64200Y189800D02*
D03*
D101*
X-139012Y73981D02*
D03*
M02*
